<?xml version="1.0" encoding="UTF-8" standalone="no"?>
<!-- Created with Inkscape (http://www.inkscape.org/) -->

<svg
   xmlns:dc="http://purl.org/dc/elements/1.1/"
   xmlns:cc="http://creativecommons.org/ns#"
   xmlns:rdf="http://www.w3.org/1999/02/22-rdf-syntax-ns#"
   xmlns:svg="http://www.w3.org/2000/svg"
   xmlns="http://www.w3.org/2000/svg"
   xmlns:sodipodi="http://sodipodi.sourceforge.net/DTD/sodipodi-0.dtd"
   xmlns:inkscape="http://www.inkscape.org/namespaces/inkscape"
   width="105.89256"
   height="119.04343"
   viewBox="0 0 28.017403 31.49691"
   version="1.1"
   id="svg8"
   inkscape:version="0.92.5 (2060ec1f9f, 2020-04-08)"
   sodipodi:docname="clock.svg">
  <defs
     id="defs2" />
  <sodipodi:namedview
     id="base"
     pagecolor="#ffffff"
     bordercolor="#666666"
     borderopacity="1.0"
     inkscape:pageopacity="0.0"
     inkscape:pageshadow="2"
     inkscape:zoom="4"
     inkscape:cx="61.11254"
     inkscape:cy="67.360089"
     inkscape:document-units="px"
     inkscape:current-layer="layer3"
     showgrid="false"
     inkscape:window-width="1920"
     inkscape:window-height="1043"
     inkscape:window-x="1920"
     inkscape:window-y="0"
     inkscape:window-maximized="1"
     units="px"
     fit-margin-top="0"
     fit-margin-left="0"
     fit-margin-right="0"
     fit-margin-bottom="0"
     inkscape:pagecheckerboard="true" />
  <metadata
     id="metadata5">
    <rdf:RDF>
      <cc:Work
         rdf:about="">
        <dc:format>image/svg+xml</dc:format>
        <dc:type
           rdf:resource="http://purl.org/dc/dcmitype/StillImage" />
        <dc:title></dc:title>
      </cc:Work>
    </rdf:RDF>
  </metadata>
  <g
     inkscape:groupmode="layer"
     id="layer3"
     inkscape:label="Drawing"
     transform="translate(-92.481906,-66.135783)">
    <path
       style="fill:none;stroke:#000000;stroke-width:0.99999994px;stroke-linecap:butt;stroke-linejoin:miter;stroke-opacity:1"
       d="m 396.92641,285.16539 c -8.16053,-0.42918 -16.08021,2.59251 -23.86523,5.42968 -6.13412,4.18601 -14.25957,7.35766 -21.40102,22.28774 -3.79425,12.23199 -0.49794,22.15956 5.17578,31.31446 5.79101,5.73307 11.08187,11.71622 21.46679,15.15234 10.50818,3.41701 20.50768,3.61244 30.30469,2.52539 16.76122,-3.68683 20.84368,-8.9585 26.64258,-14.01562 6.62158,-6.96532 11.46984,-14.67909 10.48047,-26.01172 -2.52362,-17.76885 -9.79776,-21.00672 -16.16406,-27.02149 -13.38302,-9.0939 -22.97413,-9.3951 -32.64,-9.66078 z"
       transform="scale(0.26458333)"
       id="path34"
       inkscape:connector-curvature="0"
       sodipodi:nodetypes="cccccccccc" />
    <path
       style="fill:none;stroke:#000000;stroke-width:0.26499999;stroke-linecap:round;stroke-linejoin:round;stroke-miterlimit:4;stroke-dasharray:none;stroke-opacity:1"
       d="m 117.58775,79.719652 c 0.26968,-0.124495 1.43414,-0.731953 1.96845,-1.600641 1.08077,-1.757126 1.02809,-2.553007 -0.93864,-3.838051 -1.86117,-1.219711 -4.47051,-0.105939 -6.26216,0.540295 -0.65732,0.23709 -0.7739,0.618053 -0.92816,0.789802 -0.10988,0.12234 0.10338,0.369392 0.14526,0.344515 0,0 5.59444,3.184558 5.56103,3.217967 0.46848,0.309485 0.89596,0.372144 1.00964,0.278843"
       id="path39"
       inkscape:connector-curvature="0"
       sodipodi:nodetypes="cscssccc" />
    <path
       style="fill:none;stroke:#000000;stroke-width:0.26458332px;stroke-linecap:round;stroke-linejoin:miter;stroke-opacity:1"
       d="m 118.34198,74.69094 c 0,0 2.09068,-2.232422 0.6024,-3.803385 -1.48828,-1.570964 -4.3231,-3.508092 -4.4176,-3.531717 -0.0945,-0.02363 -2.04655,-1.127048 -4.55933,-1.086681 -2.52321,0.04053 -2.52375,0.08576 -3.73252,0.18899 -1.21296,0.103583 -4.85596,0.973738 -4.84282,1.039434 0,0 -3.827007,1.299292 -4.677452,2.126115 -0.850448,0.826823 -1.937128,1.842635 -2.126118,2.834822 -0.188986,0.992188 -0.330729,0.968563 -0.07087,1.511903"
       id="path852"
       inkscape:connector-curvature="0"
       sodipodi:nodetypes="cscsscccc" />
    <path
       style="fill:none;stroke:#000000;stroke-width:0.26458332px;stroke-linecap:round;stroke-linejoin:miter;stroke-opacity:1"
       d="m 94.446369,78.674202 c 0,0 -0.701582,-2.221677 0,-3.54132 0.701583,-1.319644 1.386459,-1.286235 1.386459,-1.286235 0,0 1.085784,-0.167042 1.904296,0 0.818513,0.167044 2.789626,1.035669 3.257346,1.069078"
       id="path854"
       inkscape:connector-curvature="0" />
    <path
       style="fill:none;stroke:#000000;stroke-width:0.26458332px;stroke-linecap:round;stroke-linejoin:miter;stroke-opacity:1"
       d="m 100.19266,75.015952 c 0,0 -3.541317,2.589172 -5.746291,3.65825"
       id="path856"
       inkscape:connector-curvature="0"
       sodipodi:nodetypes="cc" />
    <path
       style="fill:none;stroke:#000000;stroke-width:0.26458332px;stroke-linecap:round;stroke-linejoin:round;stroke-opacity:1"
       d="M 95.573912,92.22978 93.502574,96.906997 96.308904,97.5"
       id="path860"
       inkscape:connector-curvature="0" />
    <path
       style="fill:none;stroke:#000000;stroke-width:0.26458332px;stroke-linecap:round;stroke-linejoin:round;stroke-opacity:1"
       d="m 96.049985,97.433182 1.662083,-3.482856"
       id="path862"
       inkscape:connector-curvature="0" />
    <path
       style="fill:#4d4d4d;fill-opacity:0;stroke:#000000;stroke-width:0.36500001;stroke-linecap:round;stroke-linejoin:round;stroke-miterlimit:4;stroke-dasharray:none;stroke-opacity:1"
       id="path868"
       d="m 114.25402,93.053814 c 0.0308,0.04991 0.0672,0.0962 0.1029,0.142632 0.0392,0.04814 0.0828,0.09232 0.12552,0.137287 0.0381,0.04087 0.0825,0.07517 0.1252,0.110956 0.0386,0.02849 0.074,0.06134 0.11398,0.08801 0.0366,0.02439 0.0716,0.05099 0.10769,0.07606 0.0357,0.02267 0.0701,0.04729 0.10519,0.07087 0.0315,0.01593 0.0581,0.03984 0.09,0.05473 0.025,0.0149 0.0518,0.02659 0.0769,0.04125 0.0194,0.01143 0.0396,0.02159 0.0583,0.03428 0.0166,0.01024 0.0333,0.01842 0.0487,0.0306 0.014,0.0098 0.029,0.01791 0.0438,0.02656 0.0163,0.0091 0.0307,0.01963 0.0452,0.03124 0.0137,0.0078 0.0249,0.019 0.0377,0.02797 0.011,0.0099 0.0239,0.01659 0.0365,0.02408 0.0145,0.0076 0.0278,0.01828 0.041,0.02811 0.0138,0.01088 0.027,0.0222 0.0412,0.03261 0.0154,0.01336 0.0314,0.02609 0.048,0.03808 0.0171,0.0149 0.0345,0.02906 0.0532,0.04207 0.0209,0.01617 0.0409,0.03367 0.0631,0.04811 0.0214,0.01826 0.0452,0.03355 0.0672,0.05096 0.0236,0.01505 0.045,0.03284 0.0673,0.04969 0.0213,0.01323 0.0426,0.02638 0.0603,0.04429 0.0167,0.01378 0.0339,0.027 0.0508,0.04063 0.0142,0.01397 0.03,0.02603 0.0451,0.03898 0.0149,0.01244 0.0287,0.02619 0.0437,0.03852 0.0168,0.01236 0.0325,0.02595 0.049,0.03872 0.0199,0.01408 0.0363,0.03173 0.0536,0.04872 0.0172,0.01728 0.035,0.03408 0.0511,0.05237 0.0171,0.01675 0.0348,0.03285 0.0521,0.04933 0.019,0.01508 0.0348,0.03298 0.0511,0.05071 0.0147,0.01781 0.0322,0.03295 0.0474,0.05027 0.0152,0.01757 0.0334,0.03213 0.0489,0.04932 0.016,0.01775 0.0327,0.03495 0.0471,0.05415 0.0149,0.0199 0.032,0.03813 0.0467,0.05822 0.0139,0.02196 0.0311,0.04122 0.047,0.06176 0.0139,0.01847 0.0305,0.03463 0.0462,0.05146 0.0115,0.01439 0.0262,0.02543 0.0388,0.03858 0.011,0.01251 0.0222,0.02487 0.0335,0.03705 0.008,0.01072 0.0177,0.02035 0.0277,0.02959 0.009,0.01185 0.0198,0.02281 0.0292,0.03471 0.0124,0.01439 0.0254,0.02732 0.0362,0.04305 0.0138,0.02159 0.0289,0.04228 0.0435,0.06337 0.018,0.02336 0.0365,0.04619 0.0562,0.06816 0.0186,0.02461 0.0393,0.04747 0.0583,0.07174 0.0176,0.02233 0.0343,0.04538 0.0536,0.0663 0.0156,0.01773 0.0317,0.03478 0.0469,0.05294 0.0143,0.01585 0.0277,0.03266 0.0421,0.04838 0.0144,0.01315 0.0266,0.02825 0.0409,0.04147 0.0101,0.01093 0.0205,0.02175 0.0312,0.03206 0.0103,0.0072 0.0167,0.01815 0.0258,0.02654 0.008,0.0069 0.0163,0.01394 0.0226,0.02241 0.009,0.0035 0.0115,0.01421 0.0183,0.01892 0.008,0.0043 0.0142,0.0098 0.0191,0.01691 0.003,0.0056 0.009,0.0048 0.0131,0.0076 0.006,0.0055 0.003,0.0033 0.009,0.0069 0.009,0.0059 0.0165,0.01495 0.025,0.02217 0.0104,0.009 0.0197,0.01908 0.03,0.02841 0.008,0.01101 0.0197,0.0181 0.0298,0.02686 0.0103,0.0073 0.0191,0.01646 0.0291,0.02426 0.0117,0.0083 0.0223,0.01797 0.0331,0.02742 0.006,0.006 0.0131,0.0073 0.0205,0.01188 0.006,0.0083 0.0133,0.0155 0.0196,0.02381 0.01,0.0035 0.0151,0.0114 0.0223,0.01794 0.01,0.0074 0.0203,0.014 0.0292,0.02257 0.01,0.0059 0.0146,0.01685 0.0249,0.02201 0.005,0.0019 0.0112,0.0013 0.0166,7.93e-4 0.0733,-0.0092 -0.19086,0.122743 -0.13155,0.07336 0.007,0.0011 0.005,-0.006 0.009,-0.0092 0.0138,-0.01016 -0.007,0.0083 0.005,-0.0031 0.005,-0.0077 0.0113,-0.01386 0.0149,-0.0231 0.003,-0.01199 0.0119,-0.02016 0.0183,-0.02992 0.005,-0.01127 0.0151,-0.01953 0.0227,-0.0292 0.007,-0.01143 0.0137,-0.02265 0.022,-0.03328 0.01,-0.01289 0.0193,-0.02574 0.0307,-0.03743 0.012,-0.01281 0.0216,-0.02746 0.0322,-0.04138 0.0122,-0.01394 0.0252,-0.02682 0.0364,-0.04163 0.0106,-0.01426 0.0222,-0.02766 0.032,-0.04253 0.01,-0.01487 0.0209,-0.02897 0.0315,-0.04337 0.0115,-0.01421 0.0214,-0.0294 0.0314,-0.04462 0.0107,-0.01439 0.0203,-0.02959 0.0292,-0.04517 0.009,-0.01672 0.0206,-0.03221 0.0314,-0.04802 0.01,-0.01386 0.0185,-0.02841 0.0262,-0.04346 0.007,-0.0159 0.017,-0.03066 0.0261,-0.04564 0.009,-0.01326 0.0189,-0.02535 0.0277,-0.03858 0.009,-0.01453 0.0218,-0.02658 0.0332,-0.03953 0.0115,-0.01315 0.0267,-0.02246 0.0401,-0.03365 0.0129,-0.01103 0.0267,-0.02082 0.0405,-0.03078 0.0526,-0.02973 0.10524,-0.05926 0.15768,-0.08919 0.005,-0.0029 0.0204,-0.01172 0.0153,-0.0088 -0.0468,0.02714 -0.0938,0.05389 -0.14072,0.08081 -0.003,0.0016 0.005,-0.003 0.008,-0.0045 0.0523,-0.03001 0.10466,-0.05998 0.15699,-0.08997 0.01,-0.0084 0.0216,-0.01019 0.0327,-0.01479 0.005,-0.0021 0.01,-0.0055 0.0148,-0.0077 -0.003,0.004 0.0179,-0.0099 0.0134,-0.0074 -0.0478,0.02728 -0.19153,0.108159 -0.14296,0.08235 0.0529,-0.0281 0.10357,-0.06014 0.1559,-0.08923 0.0103,-0.0024 0.006,-2.64e-4 0.014,-0.0061 -0.0479,0.02749 -0.19218,0.109017 -0.14374,0.08246 0.0523,-0.02869 0.10368,-0.05913 0.15543,-0.08886 0.002,-0.0013 0.009,-0.0054 0.006,-0.0041 -0.20954,0.12037 -0.17944,0.110332 -0.12845,0.07122 0.0654,-0.04029 0.13009,-0.07701 0.19793,-0.109509 0.0179,-0.0063 0.0346,-0.01572 0.0523,-0.02273 0.02,-0.01064 0.0417,-0.01638 0.0611,-0.02838 0.0613,-0.02895 0.1682,-0.09282 -0.0896,0.05496 0.0979,-0.05871 0.32121,-0.183288 0.0277,-0.01635 -0.006,0.0035 0.0115,-0.0085 0.0177,-0.01209 0.0525,-0.03083 0.10534,-0.06107 0.15801,-0.0916 0.0204,-0.0065 0.0395,-0.0168 0.0578,-0.02779 0.0206,-0.0096 0.0427,-0.0136 0.0625,-0.025 0.0205,-0.009 0.0423,-0.01357 0.0627,-0.02294 0.0184,-0.01281 0.0396,-0.0181 0.06,-0.02641 0.0181,-0.0076 0.0349,-0.01826 0.0527,-0.02646 -0.25928,0.148119 -0.15522,0.09406 -0.10187,0.05403 0.016,-0.01233 0.0331,-0.0232 0.0491,-0.03547 0.0152,-0.01379 0.0315,-0.0263 0.0485,-0.03767 0.019,-0.01172 0.0363,-0.02566 0.0554,-0.03726 0.0185,-0.01177 0.0362,-0.02474 0.0534,-0.03846 0.0167,-0.0141 0.034,-0.02746 0.0509,-0.04133 0.0175,-0.01408 0.0341,-0.02927 0.0504,-0.04471 0.0162,-0.01442 0.0304,-0.03088 0.0453,-0.04658 0.0153,-0.01516 0.034,-0.02617 0.0495,-0.04101 0.0166,-0.01468 0.0343,-0.02824 0.0519,-0.04181 0.0178,-0.01236 0.0344,-0.02614 0.0524,-0.03807 0.0197,-0.01551 0.041,-0.02858 0.0618,-0.04234 0.0683,-0.0473 0.14264,-0.08503 0.21451,-0.126577 -0.45678,0.260414 0.3827,-0.21732 -0.0747,0.04407 0.0636,-0.03999 0.12939,-0.07561 0.19463,-0.11322 0.0455,-0.02625 -0.18182,0.105233 -0.13669,0.07837 0.0532,-0.03169 0.10736,-0.06191 0.16104,-0.09287 0.0258,-0.01143 0.0502,-0.02566 0.0758,-0.03759 0.13019,-0.07863 -0.49699,0.290783 0.0363,-0.02111 0.0453,-0.0265 -0.18206,0.104595 -0.13646,0.0786 0.12672,-0.07224 0.11003,-0.06242 0.17199,-0.09911 -0.0455,0.02619 -0.091,0.05252 -0.13655,0.07855 -0.008,0.0045 0.0155,-0.0098 0.0234,-0.01434 0.067,-0.0388 0.121,-0.07333 0.18564,-0.105018 0.004,-0.0021 0.008,-0.0045 0.0115,-0.0067 0.004,-0.0024 0.008,-0.0048 0.0128,-0.0072 0.004,-0.0024 0.0159,-0.0091 0.0119,-0.0068 -0.4608,0.265247 0.34689,-0.200615 -0.11475,0.06554 0.0194,-0.01296 0.0394,-0.02521 0.0586,-0.03865 0.0136,-0.01138 0.0271,-0.02283 0.0417,-0.03301 0.01,-0.01077 0.0232,-0.01796 0.0334,-0.02842 0.0109,-0.0117 0.0239,-0.02146 0.0346,-0.03337 0.0118,-0.0105 0.0246,-0.01937 0.0346,-0.03178 0.0119,-0.01204 0.0252,-0.02283 0.0384,-0.03336 0.0114,-0.0117 0.0225,-0.02363 0.0349,-0.03435 0.0113,-0.0114 0.0242,-0.0204 0.0345,-0.03283 0.009,-0.01334 0.0213,-0.02405 0.0323,-0.03578 0.009,-0.01172 0.0173,-0.02344 0.0244,-0.03616 0.009,-0.01445 0.0152,-0.03017 0.0217,-0.0458 0.005,-0.01513 0.0128,-0.02893 0.0187,-0.04364 0.005,-0.01341 0.0102,-0.02714 0.018,-0.03924 0.005,-0.0113 0.01,-0.02257 0.0156,-0.03352 0.003,-0.01103 0.007,-0.02114 0.0121,-0.03142 0.002,-0.01056 0.01,-0.01836 0.0143,-0.02768 0.002,-0.0071 0.003,-0.01445 0.003,-0.0218 4e-5,-0.009 6e-5,-0.01794 1e-5,-0.02691 -1.2e-4,-0.0092 0,-0.01839 -1e-4,-0.02757 -5e-5,-0.0064 -9e-5,-0.01281 3e-5,-0.01924 -0.004,-0.007 -0.007,-0.01434 -0.01,-0.02199 -7.9e-4,-0.0076 -0.002,-0.0084 -0.007,-0.01577 -0.007,-0.0074 -0.0104,-0.01693 -0.0154,-0.02558 -0.006,-0.0084 -0.0132,-0.01373 -0.0184,-0.02268 -0.003,-0.0072 -0.007,-0.01302 -0.0129,-0.01757 -0.007,-0.0041 -0.009,-0.0136 -0.0163,-0.01667 -0.007,-0.0054 -0.0123,-0.01476 -0.0197,-0.01995 -0.006,-0.0083 -0.015,-0.01214 -0.0223,-0.01844 -0.008,-0.0047 -0.0105,-0.01503 -0.0197,-0.01773 -0.01,-0.0028 -0.0136,-0.01344 -0.0216,-0.01857 -0.0102,-0.0054 -0.02,-0.0097 -0.0286,-0.01765 -0.0106,-0.0084 -0.0217,-0.01564 -0.0322,-0.02402 -0.0107,-0.01048 -0.0234,-0.0182 -0.0355,-0.02694 -0.0122,-0.01066 -0.0244,-0.02093 -0.0376,-0.03021 -0.0134,-0.0091 -0.0259,-0.01931 -0.0394,-0.02815 -0.0112,-0.01201 -0.0249,-0.02056 -0.0377,-0.03055 -0.0141,-0.0094 -0.0275,-0.02037 -0.0391,-0.03266 -0.0123,-0.01193 -0.0267,-0.02074 -0.0411,-0.02985 -0.0161,-0.0094 -0.0306,-0.02 -0.0451,-0.0316 -0.0134,-0.01363 -0.031,-0.02122 -0.0463,-0.03213 -0.0182,-0.0092 -0.0325,-0.02304 -0.0474,-0.03651 -0.0147,-0.01201 -0.0313,-0.02135 -0.0463,-0.03279 -0.0175,-0.01257 -0.0356,-0.024 -0.0535,-0.036 -0.0193,-0.0145 -0.0413,-0.02421 -0.0611,-0.03817 -0.0236,-0.0149 -0.0472,-0.03 -0.0721,-0.04258 -0.0281,-0.01572 -0.0564,-0.03114 -0.0849,-0.04607 -0.0295,-0.01336 -0.0574,-0.02996 -0.0879,-0.0412 -0.0292,-0.0127 -0.0584,-0.02527 -0.0871,-0.03896 -0.0257,-0.01339 -0.0503,-0.02919 -0.077,-0.04064 -0.0258,-0.0136 -0.0533,-0.02336 -0.0786,-0.03786 -0.0247,-0.0145 -0.0511,-0.0254 -0.0762,-0.03911 -0.026,-0.01278 -0.0525,-0.0244 -0.0786,-0.03701 -0.025,-0.01238 -0.0486,-0.02715 -0.0742,-0.03821 -0.0248,-0.01355 -0.0512,-0.02341 -0.0757,-0.03772 -0.0226,-0.01053 -0.0429,-0.02527 -0.0654,-0.03608 -0.0225,-0.01106 -0.0442,-0.0235 -0.0656,-0.03659 -0.0221,-0.01193 -0.0427,-0.02577 -0.0636,-0.03953 -0.0201,-0.01624 -0.0429,-0.0286 -0.0639,-0.04357 -0.0194,-0.01595 -0.0421,-0.02711 -0.0612,-0.04342 -0.0185,-0.01302 -0.0353,-0.02816 -0.0532,-0.04189 -0.0152,-0.01437 -0.0323,-0.02681 -0.0496,-0.03852 -0.014,-0.01429 -0.0303,-0.02582 -0.0455,-0.03877 -0.0155,-0.01299 -0.0287,-0.02828 -0.0436,-0.04206 -0.0144,-0.01386 -0.0315,-0.02468 -0.0457,-0.03878 -0.0153,-0.01339 -0.0281,-0.02937 -0.0434,-0.04287 -0.0146,-0.01556 -0.0316,-0.02816 -0.0478,-0.04193 -0.0182,-0.01593 -0.0373,-0.03091 -0.0558,-0.04667 -0.0169,-0.01513 -0.0352,-0.02864 -0.0527,-0.04307 -0.0159,-0.01553 -0.0355,-0.02611 -0.0532,-0.03924 -0.0192,-0.01074 -0.0359,-0.02474 -0.0537,-0.0376 -0.0162,-0.01148 -0.0315,-0.02387 -0.0478,-0.03506 -0.0178,-0.01257 -0.0356,-0.02524 -0.0533,-0.038 -0.0177,-0.01389 -0.0372,-0.02537 -0.0549,-0.03926 -0.0193,-0.01458 -0.0402,-0.02727 -0.0585,-0.04313 -0.0187,-0.01529 -0.0388,-0.02847 -0.0583,-0.04279 -0.0189,-0.01347 -0.0368,-0.028 -0.0548,-0.04274 -0.0169,-0.01336 -0.0356,-0.02445 -0.0528,-0.03752 -0.0167,-0.01222 -0.0352,-0.02138 -0.0536,-0.03071 -0.0162,-0.0096 -0.0324,-0.01876 -0.0479,-0.02948 -0.0138,-0.01138 -0.0297,-0.0199 -0.0428,-0.03196 -0.0137,-0.01111 -0.0306,-0.01704 -0.045,-0.02718 -0.0123,-0.01085 -0.0261,-0.01963 -0.0393,-0.02928 -0.0146,-0.0097 -0.028,-0.02011 -0.0414,-0.03119 -0.0143,-0.01177 -0.0279,-0.02426 -0.0415,-0.03688 -0.0169,-0.0095 -0.029,-0.02479 -0.0451,-0.03527 -0.0166,-0.01259 -0.035,-0.02289 -0.0526,-0.03418 -0.0165,-0.008 -0.0286,-0.02201 -0.0454,-0.02973 -0.0134,-0.0079 -0.0254,-0.01889 -0.0398,-0.02506 -0.0135,-0.0078 -0.0274,-0.01408 -0.0392,-0.02442 -0.0132,-0.0073 -0.0244,-0.01693 -0.0368,-0.02559 -0.0119,-0.0089 -0.0251,-0.01516 -0.0375,-0.02315 -0.0149,-0.0078 -0.0281,-0.01834 -0.0429,-0.0263 -0.0144,-0.01188 -0.0319,-0.01852 -0.0474,-0.02883 -0.0147,-0.01029 -0.0302,-0.01863 -0.0459,-0.02719 -0.0139,-0.01005 -0.0299,-0.01587 -0.0451,-0.02339 -0.0141,-0.0048 -0.0253,-0.01445 -0.0387,-0.02077 -0.008,-0.0073 -0.019,-0.01085 -0.0267,-0.01786 -0.0104,-0.0054 -0.0183,-0.0067 -0.0272,-0.0149 -0.002,-0.0035 -0.004,-0.0035 -0.008,-0.0047 0,0 0.1462,-0.096 0.1462,-0.096 v 0 c 0.004,0.0024 0.007,0.0048 0.01,0.0078 0.008,0.0054 0.0193,0.0069 0.0268,0.01426 0.009,0.0042 0.0161,0.01172 0.0252,0.01574 0.0124,0.0072 0.0243,0.01516 0.0378,0.02024 0.0159,0.0069 0.0307,0.01553 0.0456,0.0241 0.0163,0.0083 0.0309,0.0191 0.0466,0.02841 0.0158,0.0093 0.0324,0.01717 0.0472,0.0282 0.0144,0.0088 0.0284,0.01844 0.0432,0.02654 0.0132,0.0074 0.026,0.01542 0.0382,0.02445 0.0122,0.0092 0.0251,0.01696 0.0373,0.02614 0.0119,0.0083 0.0249,0.01461 0.0376,0.02164 0.0134,0.0082 0.0261,0.01746 0.0397,0.02527 0.0158,0.0097 0.0295,0.02228 0.0459,0.03097 0.0177,0.01148 0.0363,0.02186 0.053,0.03484 0.0158,0.01201 0.0301,0.02588 0.0465,0.03718 0.0132,0.01251 0.0268,0.02455 0.0409,0.03608 0.013,0.01109 0.0273,0.01987 0.0409,0.03012 0.0129,0.0095 0.0261,0.01857 0.0386,0.02856 0.0157,0.0092 0.0326,0.01688 0.0462,0.02916 0.0134,0.01061 0.028,0.01982 0.0416,0.03016 0.0153,0.0098 0.0309,0.01931 0.0469,0.02803 0.0188,0.01021 0.038,0.01971 0.0549,0.03294 0.0179,0.01257 0.0359,0.02482 0.0531,0.03833 0.0178,0.01445 0.0357,0.02869 0.0543,0.04209 0.0195,0.01461 0.0403,0.02764 0.0587,0.0437 0.0187,0.01503 0.0391,0.02781 0.0581,0.04238 0.0181,0.01326 0.0372,0.02511 0.0549,0.03884 0.0175,0.01283 0.0352,0.02532 0.053,0.03755 0.0166,0.01125 0.0317,0.02432 0.0481,0.03576 0.0173,0.01326 0.0351,0.02556 0.0535,0.03732 0.0184,0.0127 0.0372,0.02487 0.0537,0.04015 0.0179,0.01421 0.0359,0.02835 0.0529,0.04357 0.0183,0.01585 0.0377,0.03026 0.0558,0.04631 0.0167,0.01357 0.0329,0.02751 0.0483,0.0426 0.0148,0.0141 0.0282,0.02951 0.0435,0.04312 0.0148,0.01339 0.0315,0.02466 0.0458,0.03871 0.0143,0.01376 0.0275,0.02859 0.0429,0.04118 0.0151,0.01228 0.0303,0.02453 0.0448,0.03756 0.0172,0.01252 0.0345,0.02482 0.05,0.03942 0.0176,0.01434 0.0353,0.02835 0.0533,0.04219 0.0194,0.01516 0.0412,0.02688 0.0605,0.04228 0.0213,0.01437 0.0431,0.02799 0.0637,0.04333 0.0204,0.014 0.0417,0.02619 0.063,0.03886 0.0214,0.01251 0.0429,0.02458 0.0652,0.03554 0.022,0.01199 0.0432,0.02535 0.0654,0.0368 0.0245,0.01312 0.0503,0.02344 0.0748,0.03645 0.0253,0.01191 0.0492,0.02643 0.0744,0.03841 0.0265,0.01222 0.0527,0.025 0.0791,0.03768 0.0255,0.01302 0.0514,0.02516 0.0762,0.03938 0.0255,0.01333 0.0524,0.02352 0.0779,0.03681 0.0262,0.01265 0.0511,0.02768 0.077,0.04082 0.0286,0.0131 0.0573,0.02633 0.0865,0.03813 0.0304,0.01273 0.0593,0.02865 0.089,0.04284 0.0282,0.0154 0.0568,0.03024 0.0849,0.04589 0.0252,0.01355 0.0496,0.02832 0.0734,0.04412 0.0202,0.01312 0.0422,0.0231 0.0613,0.03779 0.0183,0.01183 0.0361,0.02421 0.054,0.03658 0.0161,0.01106 0.0326,0.0217 0.0474,0.0345 0.0141,0.0132 0.0292,0.02469 0.046,0.03427 0.0164,0.01029 0.033,0.02008 0.0472,0.03341 0.0138,0.0114 0.0292,0.02005 0.0441,0.02993 0.0152,0.0099 0.0302,0.02011 0.0431,0.03304 0.0117,0.01119 0.0243,0.02148 0.0378,0.03045 0.0132,0.0092 0.0251,0.01969 0.0374,0.03001 0.0131,0.0095 0.0262,0.01889 0.0393,0.02827 0.0134,0.0093 0.0249,0.02066 0.0379,0.03038 0.0121,0.0088 0.0245,0.01704 0.0356,0.02709 0.0113,0.0076 0.0215,0.01662 0.0326,0.0245 0.009,0.0061 0.02,0.01027 0.0287,0.0176 0.007,0.0061 0.0119,0.01307 0.0205,0.01659 0.008,0.006 0.0131,0.01368 0.0208,0.01942 0.008,0.0058 0.0165,0.01209 0.0232,0.01982 0.006,0.0062 0.0112,0.01265 0.0183,0.01754 0.007,0.0057 0.0105,0.01355 0.0175,0.01889 0.006,0.0066 0.013,0.01296 0.0156,0.02209 0.005,0.0084 0.0144,0.01339 0.0184,0.02267 0.005,0.0085 0.008,0.01791 0.0155,0.02514 0.004,0.0066 0.01,0.01273 0.01,0.02074 5.3e-4,0.0072 0.005,0.01384 0.008,0.02013 0.004,0.0081 0.003,0.01585 0.003,0.02461 -9e-5,0.0092 3e-5,0.01836 -1e-5,0.02756 0,0.009 1.7e-4,0.01807 1.5e-4,0.02713 1.6e-4,0.0087 2.2e-4,0.01725 -0.001,0.0258 -10e-4,0.01162 -0.006,0.02 -0.0141,0.02857 -0.003,0.01207 -0.0106,0.01984 -0.0117,0.03223 -0.004,0.01299 -0.013,0.02207 -0.0148,0.03561 -0.003,0.0064 -0.008,0.01093 -0.0109,0.01709 -0.003,0.0063 -0.003,0.01389 -0.009,0.01894 -0.004,0.01619 -0.0124,0.0297 -0.0184,0.04495 -0.006,0.01619 -0.0115,0.03279 -0.0207,0.0474 -0.006,0.01344 -0.0135,0.02714 -0.0235,0.03816 -0.008,0.01524 -0.0218,0.0236 -0.0319,0.03699 -0.0102,0.01307 -0.0189,0.02622 -0.0339,0.03447 -0.0107,0.01262 -0.025,0.02114 -0.0347,0.03474 -0.0109,0.0127 -0.0252,0.02291 -0.0388,0.03238 -0.0113,0.0109 -0.0186,0.02664 -0.0342,0.0327 -0.0157,0.01336 0.004,-0.0042 -0.0109,0.01204 -0.007,0.0079 -0.0182,0.0122 -0.0233,0.02196 -0.0164,0.01283 0.005,-0.005 -0.0102,0.01077 -0.007,0.007 -0.0175,0.0096 -0.0231,0.01799 -0.0126,0.01323 -0.0302,0.01976 -0.0414,0.03453 -0.019,0.01418 -0.0392,0.02617 -0.0583,0.0401 -0.43463,0.252317 -0.0157,0.009 -0.0224,0.01307 -0.0645,0.03857 -0.12984,0.07772 -0.19654,0.113131 -0.11627,0.05944 0.19877,-0.116472 0.0882,-0.05195 -0.0534,0.03114 -0.10669,0.06237 -0.16003,0.09355 -0.004,0.0021 -0.0158,0.0089 -0.0119,0.0066 0.0455,-0.02647 0.18214,-0.105685 0.13664,-0.07921 -0.0534,0.03107 -0.10702,0.06174 -0.16031,0.09298 -0.0453,0.02655 0.18191,-0.10496 0.13632,-0.07892 -0.0537,0.03069 -0.10704,0.06213 -0.16074,0.09287 -0.004,0.0024 -0.008,0.0042 -0.0125,0.0063 -0.025,0.01281 -0.0503,0.02524 -0.0752,0.03819 0.45667,-0.265715 -0.34578,0.201642 0.11167,-0.06434 0.0372,-0.02162 -0.0702,0.03999 -0.0339,0.02066 -0.0536,0.03095 -0.10707,0.06216 -0.16084,0.09285 -0.0842,0.04804 0.20561,-0.120547 0.0987,-0.05844 -0.0533,0.03099 -0.10662,0.06212 -0.15993,0.09318 -0.0564,0.031 -0.0329,0.01818 0.12575,-0.0733 0.004,-0.0021 -0.007,0.0047 -0.0111,0.0069 -0.0111,0.0065 -0.0219,0.01307 -0.0326,0.02013 -0.0199,0.01521 -0.0422,0.02606 -0.0617,0.04196 -0.0168,0.01373 -0.0368,0.0232 -0.0521,0.039 -0.0193,0.01048 -0.0346,0.02697 -0.0528,0.03927 -0.0163,0.01384 -0.0308,0.02969 -0.05,0.04016 -0.0157,0.01508 -0.0288,0.03231 -0.0451,0.04695 -0.0162,0.01582 -0.0326,0.03141 -0.0499,0.04598 -0.017,0.014 -0.0336,0.02803 -0.0512,0.04122 -0.0166,0.01458 -0.034,0.02842 -0.0525,0.04014 -0.0178,0.01318 -0.0381,0.02299 -0.055,0.03776 -0.0176,0.01016 -0.0345,0.02175 -0.0496,0.03531 -0.015,0.01416 -0.0329,0.02358 -0.0482,0.03731 -0.0656,0.03857 -0.11041,0.110779 -0.19615,0.118158 -0.0173,0.0094 -0.0352,0.01799 -0.0537,0.0249 -0.0207,0.0072 -0.0394,0.01818 -0.0596,0.02668 -0.0209,0.0075 -0.0424,0.01349 -0.0621,0.02394 -0.0207,0.0083 -0.0427,0.01392 -0.0619,0.02572 -0.0191,0.0098 -0.0385,0.01871 -0.0579,0.02782 0.0464,-0.02706 0.0927,-0.05426 0.13924,-0.08118 0.003,-0.0019 -0.006,0.0037 -0.009,0.0058 -0.003,0.0021 -0.005,0.0052 -0.008,0.007 -0.0523,0.03093 -0.10479,0.06142 -0.15771,0.09121 -0.0436,0.02453 0.19801,-0.115478 0.12974,-0.07518 -0.0697,0.04057 -0.13653,0.08141 -0.20788,0.11724 -0.0205,0.0095 -0.0418,0.01717 -0.0621,0.02728 -0.0172,0.0081 -0.0347,0.01543 -0.0518,0.0236 -0.0584,0.03071 -0.16538,0.07001 0.10052,-0.06219 -0.0201,0.0096 0.004,-0.0024 -0.0147,0.0087 -0.0515,0.03107 -0.10317,0.06186 -0.15489,0.09255 -0.002,0.0013 -0.009,0.0048 -0.007,0.0035 0.0478,-0.02778 0.19209,-0.10949 0.14363,-0.08291 -0.0523,0.02869 -0.10346,0.0595 -0.15519,0.08925 -0.005,0.0016 -0.0184,0.0087 -0.014,0.0061 0.0476,-0.02764 0.19048,-0.110292 0.14291,-0.08264 -0.061,0.03547 -0.10957,0.07006 -0.1696,0.09627 -0.0157,0.0075 -0.032,0.01373 -0.0469,0.02315 0.47099,-0.272778 -0.36698,0.212238 0.10146,-0.06012 -0.0152,0.0074 -0.0277,0.01897 -0.0417,0.02812 -0.0129,0.01135 -0.0256,0.02299 -0.0408,0.03136 -0.0113,0.01265 -0.0223,0.02543 -0.0342,0.03735 -0.009,0.01331 -0.0168,0.0268 -0.0278,0.0386 -0.0101,0.01386 -0.0184,0.02876 -0.027,0.04348 -0.007,0.01577 -0.0154,0.03134 -0.0253,0.04555 -0.0103,0.01611 -0.022,0.03094 -0.0319,0.04732 -0.009,0.01542 -0.0171,0.03204 -0.0285,0.04613 -0.0107,0.01506 -0.0194,0.03127 -0.0314,0.04529 -0.0107,0.01431 -0.0209,0.02842 -0.0316,0.04273 -0.0104,0.01463 -0.0192,0.03013 -0.0318,0.04314 -0.011,0.01516 -0.0215,0.03032 -0.0359,0.04255 -0.0119,0.01302 -0.0197,0.02874 -0.0323,0.04093 -0.009,0.01368 -0.0231,0.02286 -0.0306,0.03754 -0.008,0.01037 -0.0188,0.019 -0.0219,0.03254 -0.007,0.01008 -0.0142,0.01982 -0.0237,0.02725 -0.005,0.0104 -0.011,0.01892 -0.0195,0.02688 -0.003,0.0084 -0.004,0.02437 -0.0131,0.02689 -10e-4,0.0029 -10e-4,0.0063 -0.003,0.0088 -0.003,0.0037 -0.008,-0.0027 -0.009,0.01048 -0.0592,0.0283 -0.10728,0.09971 -0.17377,0.09206 -0.008,-0.0016 -0.0152,-0.0035 -0.0214,-0.0085 -0.009,-0.0074 -0.016,-0.01749 -0.026,-0.02424 -0.01,-0.0076 -0.0199,-0.015 -0.0294,-0.02304 -0.008,-0.0074 -0.0167,-0.01257 -0.0241,-0.02027 -0.005,-0.0063 -0.0101,-0.0127 -0.0159,-0.01797 -0.008,-0.0043 -0.0163,-0.0075 -0.0222,-0.01503 -0.0104,-0.0095 -0.0214,-0.01833 -0.0326,-0.0269 -0.01,-0.0082 -0.0192,-0.01609 -0.029,-0.02394 -0.0113,-0.0081 -0.0204,-0.01805 -0.0302,-0.02786 -0.0104,-0.0093 -0.0197,-0.01958 -0.0303,-0.02848 -0.007,-0.0072 -0.0147,-0.01431 -0.0234,-0.01966 -0.009,-0.0062 -0.0191,-0.01035 -0.0255,-0.01974 -0.005,-0.0058 -0.0127,-0.009 -0.0179,-0.01492 -0.006,-0.0072 -0.0118,-0.01413 -0.019,-0.02037 -0.007,-0.0074 -0.0141,-0.01408 -0.0214,-0.02088 -0.008,-0.009 -0.0162,-0.0186 -0.0256,-0.02662 -0.0103,-0.01064 -0.0213,-0.02058 -0.031,-0.03186 -0.014,-0.01402 -0.0271,-0.02888 -0.0414,-0.0427 -0.0142,-0.0163 -0.0282,-0.03272 -0.0424,-0.04901 -0.0147,-0.0181 -0.0312,-0.03453 -0.0462,-0.05239 -0.0193,-0.02148 -0.0361,-0.04496 -0.0541,-0.06753 -0.0187,-0.02394 -0.0392,-0.04659 -0.0575,-0.07085 -0.0201,-0.02252 -0.0394,-0.04574 -0.0576,-0.06986 -0.0146,-0.02103 -0.0298,-0.04166 -0.0439,-0.06303 -0.0108,-0.01511 -0.0242,-0.02742 -0.0357,-0.04188 -0.009,-0.01106 -0.0189,-0.02162 -0.0283,-0.03255 -0.0101,-0.0097 -0.0194,-0.01984 -0.0281,-0.03068 -0.0113,-0.01204 -0.022,-0.0245 -0.0331,-0.03663 -0.0132,-0.01281 -0.0273,-0.02474 -0.0388,-0.03913 -0.0162,-0.01712 -0.0326,-0.03421 -0.0469,-0.05304 -0.0159,-0.02061 -0.0331,-0.04016 -0.0472,-0.06208 -0.0148,-0.0199 -0.0319,-0.03805 -0.0466,-0.05802 -0.0143,-0.01857 -0.0307,-0.03522 -0.0463,-0.05266 -0.0159,-0.01691 -0.0338,-0.03187 -0.0489,-0.04957 -0.0155,-0.01699 -0.0328,-0.03241 -0.0475,-0.05014 -0.0157,-0.01773 -0.0321,-0.03433 -0.0503,-0.04963 -0.0177,-0.01677 -0.0359,-0.03307 -0.0529,-0.05054 -0.0162,-0.01783 -0.0334,-0.03471 -0.0506,-0.05156 -0.0164,-0.0168 -0.0332,-0.03298 -0.0523,-0.04677 -0.0168,-0.01288 -0.033,-0.02655 -0.0498,-0.03934 -0.0144,-0.01288 -0.0287,-0.02585 -0.0435,-0.03831 -0.0154,-0.01243 -0.0298,-0.02574 -0.0447,-0.0388 -0.0174,-0.01381 -0.0352,-0.02723 -0.0517,-0.04215 -0.0178,-0.01669 -0.0391,-0.02863 -0.0589,-0.04258 -0.0223,-0.01688 -0.044,-0.03437 -0.0673,-0.04988 -0.0222,-0.01677 -0.0449,-0.03275 -0.0667,-0.05006 -0.0216,-0.01543 -0.0423,-0.03209 -0.0634,-0.04813 -0.0188,-0.01312 -0.0358,-0.02828 -0.0537,-0.04249 -0.016,-0.01252 -0.0325,-0.02447 -0.0478,-0.03781 -0.0142,-0.01027 -0.0271,-0.02207 -0.0413,-0.03244 -0.0132,-0.0092 -0.0258,-0.01963 -0.0404,-0.02672 -0.0131,-0.0078 -0.0258,-0.0159 -0.0375,-0.02564 -0.0124,-0.0098 -0.0247,-0.01976 -0.0378,-0.02868 -0.0136,-0.01125 -0.0288,-0.01977 -0.0439,-0.02896 -0.0153,-0.009 -0.0307,-0.01773 -0.0449,-0.02846 -0.0151,-0.01135 -0.0326,-0.01828 -0.0477,-0.02957 -0.0189,-0.01162 -0.0383,-0.02246 -0.0575,-0.03356 -0.0253,-0.01378 -0.051,-0.02671 -0.0762,-0.04078 -0.0313,-0.01704 -0.0595,-0.03945 -0.0906,-0.0569 -0.0351,-0.02371 -0.0697,-0.04819 -0.1053,-0.07113 -0.0359,-0.02521 -0.0709,-0.0518 -0.1075,-0.07606 -0.0395,-0.02805 -0.076,-0.0602 -0.11452,-0.0896 -0.0431,-0.03621 -0.0872,-0.07165 -0.12565,-0.112961 -0.0431,-0.04541 -0.0868,-0.09025 -0.1263,-0.138893 -0.036,-0.04683 -0.072,-0.0938 -0.10541,-0.1425 0,0 0.14955,-0.08763 0.14955,-0.08763 z"
       inkscape:connector-curvature="0" />
    <path
       style="fill:#4d4d4d;fill-opacity:0;stroke:#000000;stroke-width:0.36500001;stroke-linecap:round;stroke-linejoin:round;stroke-miterlimit:4;stroke-dasharray:none;stroke-opacity:1"
       id="path878"
       d="m 115.3251,93.320125 c 0.0201,-0.04307 0.0411,-0.08568 0.0637,-0.127521 0.0302,-0.05795 0.0656,-0.112821 0.1024,-0.166761 0.0485,-0.07545 0.10027,-0.148522 0.15283,-0.221137 0.0607,-0.07884 0.12195,-0.157252 0.18279,-0.235997 0.0636,-0.08154 0.13129,-0.159666 0.20129,-0.235733 0.0656,-0.07079 0.13453,-0.138311 0.20435,-0.204862 0.0625,-0.05996 0.12078,-0.123992 0.18108,-0.186079 0.0511,-0.052 0.10692,-0.09895 0.16073,-0.148032 0.0449,-0.04093 0.0922,-0.07897 0.14161,-0.114223 0.0478,-0.03319 0.0951,-0.06701 0.14223,-0.101129 0.0463,-0.03291 0.0934,-0.06465 0.14032,-0.09663 0.0445,-0.03063 0.0895,-0.0606 0.13475,-0.09012 0.0875,-0.05411 0.17677,-0.105076 0.26586,-0.156517 -0.33243,0.193564 0.0493,-0.03347 0.0758,-0.04394 0.0127,-0.0033 0.0233,-0.0104 0.0365,-0.0074 0.0124,0.0058 0.012,0.02318 0.009,0.03408 -0.005,0.02021 -0.009,0.04058 -0.0138,0.0609 -0.007,0.04008 -0.02,0.07864 -0.0337,0.116901 -0.0218,0.06189 -0.0479,0.122179 -0.0737,0.182467 -0.0328,0.07953 -0.0692,0.157501 -0.10467,0.235886 -0.0372,0.086 -0.0742,0.172088 -0.11308,0.257361 -0.0334,0.07096 -0.0677,0.141483 -0.1003,0.212828 -0.0272,0.05937 -0.0545,0.118729 -0.0814,0.178276 -0.0213,0.04794 -0.0457,0.09444 -0.0708,0.140441 -0.0204,0.03867 -0.0452,0.0746 -0.0665,0.112702 -0.0189,0.03073 -0.0358,0.06266 -0.055,0.09318 -0.018,0.03056 -0.0356,0.06144 -0.0523,0.09275 -0.0183,0.03184 -0.0353,0.06438 -0.0531,0.0965 -0.0198,0.03245 -0.0374,0.0662 -0.0565,0.09906 -0.0208,0.03659 -0.0435,0.07199 -0.0636,0.108982 -0.02,0.0324 -0.0362,0.06671 -0.0522,0.101208 -0.0131,0.02455 -0.025,0.04971 -0.0367,0.07494 -0.007,0.01389 -0.0143,0.02733 -0.0194,0.04208 -0.003,0.0079 -0.003,0.01651 -0.004,0.02492 3e-5,0.0055 2e-4,0.01323 -2.3e-4,0.01744 0.005,0.0033 0.009,0.0075 0.0141,0.01119 7.9e-4,5.29e-4 0.002,0.0024 0.002,0.0016 -2.4e-4,-0.0021 -0.002,-0.004 -0.003,-0.0062 -2.7e-4,-0.0019 0.005,-0.0059 0.003,-0.0049 -0.1389,0.07948 -0.18929,0.113531 -0.13848,0.07935 0.011,-0.0062 0.0151,-0.01961 0.0219,-0.02973 0.0138,-0.02545 0.0314,-0.04838 0.0479,-0.07213 0.0231,-0.03554 0.0452,-0.07167 0.0688,-0.106958 0.0344,-0.05081 0.0697,-0.100973 0.10522,-0.151027 0.049,-0.07058 0.10201,-0.138295 0.15429,-0.206473 0.0599,-0.07737 0.12291,-0.152074 0.19045,-0.222864 0.0764,-0.07686 0.15158,-0.155003 0.22996,-0.229904 0.0705,-0.06545 0.14134,-0.130614 0.2141,-0.193582 0.0526,-0.04443 0.10802,-0.08525 0.16155,-0.12849 0.0295,-0.02313 0.058,-0.04744 0.0879,-0.07004 0.0156,-0.01296 0.0314,-0.02569 0.047,-0.03875 0.0538,-0.04136 0.15094,-0.140202 0.1784,-0.06039 0.006,0.0277 0.006,0.05651 0.006,0.08479 -1.9e-4,0.05513 -7.9e-4,0.110268 -0.001,0.165399 7.9e-4,0.09246 -0.009,0.184539 -0.0147,0.276696 -0.008,0.119828 -0.026,0.238681 -0.0414,0.357706 -0.0148,0.128781 -0.0384,0.256075 -0.0654,0.382776 -0.0267,0.114998 -0.0551,0.22956 -0.0878,0.343016 -0.0276,0.08729 -0.0574,0.173866 -0.0888,0.259853 -0.0217,0.0554 -0.0411,0.11167 -0.0617,0.167497 -0.008,0.02697 -0.0218,0.05221 -0.0298,0.07931 2.3e-4,0.01582 -0.002,0.0011 -5.3e-4,-0.0049 0.0544,-0.01945 0.12146,-0.06777 -0.13736,0.08 -0.002,0.0013 0.004,-0.0024 0.006,-0.0038 0.004,-0.0024 0.01,-0.0074 0.013,-0.01 0.0234,-0.01992 0.0447,-0.04214 0.0652,-0.06498 0.0377,-0.04267 0.0794,-0.08159 0.12134,-0.119986 0.0523,-0.04853 0.10226,-0.09947 0.15255,-0.150032 0.0551,-0.05323 0.11254,-0.103928 0.16769,-0.157139 0.0557,-0.05324 0.11222,-0.105698 0.16626,-0.16067 0.0467,-0.04811 0.096,-0.09372 0.14333,-0.141211 0.0369,-0.03812 0.0715,-0.07831 0.10832,-0.116547 0.0229,-0.02379 0.0477,-0.0458 0.0726,-0.06747 0.0543,-0.04372 0.01,-0.0086 0.16366,-0.09654 0.009,-0.0054 0.0124,-0.0058 0.0196,0.0016 0.002,0.0037 0.004,0.0071 0.005,0.01103 0.002,0.008 -0.0149,0.02903 -0.0189,0.03589 -0.022,0.03579 -0.0406,0.07346 -0.0585,0.111439 -0.0337,0.06333 -0.0575,0.131022 -0.0821,0.198179 -0.0335,0.09429 -0.0666,0.188708 -0.0995,0.283199 -0.0341,0.104704 -0.067,0.209762 -0.10341,0.313695 -0.0319,0.09439 -0.0694,0.186701 -0.10312,0.280422 -0.0329,0.08423 -0.0601,0.170436 -0.0886,0.256204 -0.0245,0.06837 -0.043,0.138689 -0.0588,0.209523 -0.0143,0.05633 -0.0223,0.113768 -0.0266,0.171635 -0.002,0.04103 0.007,0.07964 0.0256,0.115851 0.0163,0.03114 0.0448,0.04447 0.0767,0.05491 0.0459,0.01172 0.0936,0.01188 0.1406,0.01288 0.065,-0.0013 0.12819,-0.01527 0.19085,-0.03117 0.0566,-0.01664 0.11362,-0.0332 0.16714,-0.05827 0.0186,-0.0085 0.0179,-0.0081 0.0361,-0.0168 0.005,-0.0024 0.0201,-0.01019 0.0153,-0.0074 -0.25843,0.150368 -0.16145,0.101346 -0.11909,0.0647 0.0105,-0.0085 0.0175,-0.01902 0.0217,-0.03168 2.6e-4,-0.0013 5.3e-4,-0.0028 7.9e-4,-0.0042 0,0 0.1566,-0.07753 0.1566,-0.07753 v 0 c -1.1e-4,0.0019 -2.2e-4,0.0035 -2.6e-4,0.0053 -0.001,0.01588 -0.007,0.03023 -0.0178,0.04245 -0.006,0.0053 -0.01,0.01249 -0.0167,0.01648 -0.0704,0.04218 -0.13711,0.08413 -0.21173,0.115575 -0.0544,0.02252 -0.11091,0.03963 -0.16768,0.05497 -0.0637,0.01558 -0.1284,0.02822 -0.19429,0.02803 -0.0486,-0.0013 -0.098,-0.0019 -0.14476,-0.01667 -0.0351,-0.01347 -0.0658,-0.03121 -0.0838,-0.06587 -0.0198,-0.03904 -0.0309,-0.08056 -0.0289,-0.124711 0.004,-0.05871 0.0116,-0.117176 0.0264,-0.174252 0.0154,-0.07165 0.0343,-0.14275 0.0592,-0.211725 0.0288,-0.08593 0.0559,-0.172532 0.0892,-0.25687 0.0334,-0.09397 0.0714,-0.186219 0.10368,-0.280596 0.0367,-0.10387 0.0706,-0.208637 0.10367,-0.313725 0.0325,-0.09424 0.0652,-0.188439 0.0977,-0.282683 0.0242,-0.06704 0.0463,-0.13535 0.0797,-0.198591 0.017,-0.03804 0.0345,-0.07613 0.0562,-0.111731 0.001,-0.0028 0.0134,-0.02841 0.0163,-0.02995 0.004,-0.0021 0.0106,0.0094 0.0102,0.0092 5.3e-4,0.0013 0.002,0.0028 0.002,0.0043 -3e-5,1.83e-4 -0.0186,0.0105 -0.0114,0.0063 0.14495,-0.08429 0.19025,-0.108104 0.13322,-0.07794 -0.0261,0.02066 -0.0507,0.04351 -0.0748,0.06638 -0.0375,0.03805 -0.0727,0.07807 -0.10926,0.117012 -0.0468,0.04836 -0.0972,0.09315 -0.14405,0.141467 -0.0539,0.0554 -0.11033,0.108109 -0.16643,0.161227 -0.0548,0.05346 -0.11164,0.104497 -0.16754,0.156739 -0.0502,0.05054 -0.10009,0.101386 -0.15158,0.150609 -0.0418,0.03746 -0.083,0.07613 -0.12075,0.117673 -0.02,0.02302 -0.04,0.04591 -0.0627,0.06643 -0.0515,0.04832 -0.11813,0.07481 -0.17972,0.10917 -0.0138,-0.0024 -0.0196,-0.01574 -0.0198,-0.0284 0.003,-0.02956 0.0232,-0.05468 0.03,-0.08332 0.0229,-0.05537 0.0407,-0.112853 0.0638,-0.168185 0.0326,-0.08576 0.0626,-0.172514 0.0913,-0.259633 0.033,-0.113292 0.0627,-0.227433 0.0893,-0.342434 0.0274,-0.126265 0.0519,-0.253074 0.0662,-0.381609 0.0151,-0.118512 0.0325,-0.236871 0.0406,-0.356129 0.006,-0.09145 0.0139,-0.182914 0.013,-0.274608 -2.6e-4,-0.05474 -5.3e-4,-0.10948 -7.9e-4,-0.164219 -2.7e-4,-0.02653 2.1e-4,-0.05335 -0.004,-0.07957 -5.3e-4,-0.0024 -0.001,-0.0047 -0.002,-0.0069 -7.9e-4,-0.0021 -0.005,-0.0046 -0.003,-0.0057 0.25711,-0.152366 0.19275,-0.109363 0.14129,-0.07557 -0.0168,0.01196 -0.0318,0.02606 -0.048,0.0389 -0.0291,0.02432 -0.0607,0.04602 -0.0897,0.07058 -0.0539,0.04387 -0.10997,0.08488 -0.16377,0.12887 -0.0736,0.06263 -0.14454,0.12813 -0.21578,0.193379 -0.0789,0.07403 -0.1533,0.152675 -0.22995,0.22905 -0.0678,0.06987 -0.13056,0.1441 -0.19046,0.220832 -0.0521,0.06772 -0.1045,0.135244 -0.15337,0.205324 -0.0349,0.04978 -0.0697,0.09962 -0.10373,0.150008 -0.0239,0.03481 -0.0458,0.07087 -0.0681,0.106572 -0.0153,0.02384 -0.0338,0.0456 -0.0468,0.07087 -0.007,0.01183 -0.0147,0.02244 -0.0191,0.03554 -0.0498,0.04348 -0.006,0.0055 -0.15999,0.09507 -0.002,0.0011 -0.005,0.0013 -0.007,7.1e-5 -0.003,-0.0021 -0.004,-0.0055 -0.007,-0.0075 -0.006,-0.0055 -0.0135,-0.01048 -0.0181,-0.01781 -0.004,-0.008 -0.004,-0.0155 -0.003,-0.02437 -1.7e-4,-0.0099 -1.3e-4,-0.0199 0.001,-0.02973 0.005,-0.01537 0.009,-0.03107 0.0194,-0.04401 0.0106,-0.02603 0.0239,-0.05116 0.0373,-0.07582 0.0168,-0.03439 0.031,-0.07014 0.0522,-0.102222 0.0202,-0.03708 0.042,-0.073 0.0634,-0.109421 0.019,-0.03282 0.0367,-0.06646 0.0564,-0.09883 0.0184,-0.03164 0.0339,-0.0648 0.0533,-0.0959 0.0163,-0.03191 0.0348,-0.06255 0.0515,-0.09428 0.0204,-0.02973 0.0361,-0.06208 0.0559,-0.09217 0.0213,-0.03837 0.0456,-0.07458 0.067,-0.112948 0.026,-0.04545 0.0501,-0.09206 0.0722,-0.139489 0.0272,-0.05957 0.0543,-0.119152 0.0819,-0.178495 0.032,-0.07198 0.068,-0.142185 0.10149,-0.213498 0.0392,-0.08519 0.0767,-0.171061 0.11341,-0.25735 0.0347,-0.07827 0.0714,-0.155707 0.10355,-0.235092 0.0257,-0.05963 0.0511,-0.119531 0.0727,-0.180806 0.0133,-0.03735 0.0265,-0.07468 0.0334,-0.113848 0.004,-0.02072 0.009,-0.04088 0.0125,-0.06162 7.9e-4,-0.0029 0.005,-0.01799 0.008,-0.0068 1.3e-4,5.29e-4 -7.9e-4,5.29e-4 -0.001,5.29e-4 -0.0105,0.0042 -0.0209,0.008 -0.0312,0.01278 -0.0554,0.03087 -0.0108,0.0061 0.12965,-0.07528 0.004,-0.0024 -0.008,0.0045 -0.0121,0.007 -0.0267,0.0168 0.002,5.29e-4 -0.0271,0.01736 -0.0547,0.03179 -0.10957,0.06341 -0.16435,0.09511 0.26641,-0.154348 0.0895,-0.05153 0.0286,-0.01445 -0.0457,0.02898 -0.0905,0.05948 -0.13525,0.08986 -0.0471,0.03179 -0.094,0.0638 -0.14059,0.09622 -0.0473,0.0339 -0.0942,0.06839 -0.14218,0.101378 -0.0501,0.03426 -0.0975,0.07193 -0.14287,0.112204 -0.0533,0.04998 -0.11052,0.09577 -0.16213,0.147672 -0.0609,0.06195 -0.11926,0.126267 -0.18146,0.186915 -0.0701,0.06643 -0.13957,0.133512 -0.20544,0.20414 -0.0702,0.07557 -0.13817,0.153172 -0.20187,0.234383 -0.0609,0.07839 -0.1211,0.157237 -0.18244,0.235263 -0.0524,0.07222 -0.10469,0.144451 -0.15192,0.22022 -0.0365,0.05327 -0.0719,0.107297 -0.1018,0.16459 -0.0224,0.04114 -0.0442,0.08277 -0.062,0.126158 0,0 -0.15824,0.0716 -0.15824,0.0716 z"
       inkscape:connector-curvature="0" />
    <path
       style="fill:#4d4d4d;fill-opacity:0;stroke:#000000;stroke-width:0.36500001;stroke-linecap:round;stroke-linejoin:round;stroke-miterlimit:4;stroke-dasharray:none;stroke-opacity:1"
       id="path880"
       d="m 94.192901,95.6601 c 0.0074,-0.04846 0.01966,-0.09588 0.03252,-0.143113 0.01617,-0.05555 0.03583,-0.109969 0.05363,-0.164997 0.02416,-0.07882 0.0503,-0.157017 0.07613,-0.235299 0.03751,-0.110723 0.07222,-0.22238 0.104957,-0.334603 0.04568,-0.148087 0.08976,-0.296658 0.13321,-0.44541 0.04598,-0.157768 0.08891,-0.316447 0.137372,-0.473477 0.04316,-0.145208 0.09404,-0.287708 0.149341,-0.42867 0.04019,-0.09085 0.08195,-0.181533 0.133675,-0.266486 0.03213,-0.04841 0.06442,-0.09671 0.09667,-0.145039 0.02125,-0.03112 0.04159,-0.06289 0.06198,-0.09459 0.01217,-0.02035 0.02801,-0.03812 0.04027,-0.05836 0.0073,-0.01352 0.01656,-0.02585 0.0277,-0.03637 0.03757,-0.05151 0.07005,-0.04207 0.166566,-0.07691 0.0035,-0.0013 0.0058,0.03288 0.0059,0.03459 5.29e-4,0.04727 -0.0041,0.09429 -0.0078,0.141348 -0.0063,0.09353 -0.01249,0.187082 -0.02119,0.280424 -0.01397,0.134218 -0.03483,0.267595 -0.05591,0.400841 -0.02656,0.155425 -0.05589,0.310375 -0.08195,0.465881 -0.02675,0.164129 -0.05918,0.327224 -0.09118,0.490387 -0.03289,0.169987 -0.07271,0.33849 -0.110847,0.507347 -0.03807,0.154368 -0.0719,0.309702 -0.106987,0.464764 -0.02834,0.124349 -0.05465,0.249161 -0.08112,0.37392 -0.01537,0.07456 -0.0329,0.148738 -0.04538,0.223858 -0.0021,0.02506 -0.009,0.05069 -0.007,0.076 0.0011,0.0024 0.0081,-3.9e-5 0.01167,-0.0011 0.0064,-0.0011 -7.94e-4,0.0011 0.0036,-0.0049 0.0019,-0.0024 0.0092,-0.0047 0.01199,-0.0061 -0.0484,0.02783 -0.0968,0.05565 -0.145191,0.08348 0.01603,-0.0097 0.02902,-0.02357 0.04235,-0.03653 0.03067,-0.03172 0.05734,-0.06706 0.08357,-0.102465 0.04218,-0.05962 0.08388,-0.119594 0.124638,-0.180195 0.05213,-0.07455 0.104769,-0.148709 0.154863,-0.224655 0.06044,-0.09092 0.113839,-0.186311 0.167873,-0.281117 0.06726,-0.114059 0.126695,-0.232336 0.185819,-0.350729 0.06942,-0.137112 0.136075,-0.275614 0.201637,-0.414607 0.0611,-0.131469 0.117506,-0.265036 0.177045,-0.397198 0.04094,-0.09444 0.08589,-0.186992 0.129765,-0.280059 0.02035,-0.04521 0.04215,-0.08978 0.06116,-0.13558 0.03361,-0.09472 -0.0041,-0.036 0.174538,-0.119716 0.0109,0.02885 0.0064,0.06205 0.0058,0.09238 -0.0013,0.07675 -0.0013,0.153498 -0.004,0.230217 -0.0081,0.153402 -0.01495,0.306845 -0.02143,0.46033 -0.0089,0.228417 -0.0266,0.456181 -0.04721,0.683791 -0.02,0.246108 -0.05495,0.490599 -0.09004,0.734899 -0.0263,0.182007 -0.0567,0.363392 -0.08331,0.545351 -0.0108,0.08578 -0.02357,0.17131 -0.03164,0.257403 1.91e-4,0.01304 -0.0016,0.027 0.0019,0.03989 2.65e-4,0.0013 0.0026,0.0033 0.0024,-2.62e-4 -1.51e-4,-0.0026 -0.0011,-0.0051 -0.0016,-0.0076 -0.225451,0.144204 -0.158528,0.106051 -0.112495,0.04389 0.02872,-0.04321 0.05263,-0.08949 0.07768,-0.134887 0.04232,-0.0774 0.08142,-0.156348 0.11947,-0.235913 0.0474,-0.0932 0.09647,-0.18555 0.14474,-0.278308 0.04905,-0.09736 0.09906,-0.194183 0.144494,-0.293293 0.04857,-0.108905 0.0948,-0.218914 0.13947,-0.329475 0.03974,-0.103174 0.08482,-0.204174 0.12735,-0.306205 0.02939,-0.06629 0.05901,-0.132477 0.08871,-0.198623 0.01469,-0.03632 0.03187,-0.07151 0.04764,-0.107344 0.0066,-0.01855 0.01744,-0.03498 0.02633,-0.05239 0.02737,-0.0563 0.0096,-0.01566 0.159544,-0.07357 0.0024,-0.0011 -0.0013,0.0052 -0.0019,0.0078 -0.0026,0.0096 -0.0031,0.0105 -0.0065,0.02024 -0.01294,0.03997 -0.0273,0.07947 -0.04062,0.119322 -0.02619,0.07923 -0.05718,0.156628 -0.0882,0.234043 -0.04763,0.110847 -0.09009,0.223713 -0.133731,0.336147 -0.04316,0.113782 -0.08624,0.227606 -0.131357,0.34063 -0.0334,0.08031 -0.05896,0.163537 -0.08369,0.246827 -0.0056,0.03108 -0.02365,0.0621 -0.02244,0.09435 1.29e-4,5.29e-4 1.74e-4,0.0011 2.64e-4,0.0019 5.29e-4,0.0013 -0.0011,-0.0028 -0.0011,-0.0043 -1.54e-4,-0.0011 0.0011,-0.0038 1.43e-4,-0.0033 -0.143854,0.07608 -0.183915,0.122883 -0.140639,0.07398 0.02574,-0.0342 0.04718,-0.07162 0.0711,-0.107185 0.05263,-0.08036 0.106849,-0.159631 0.161398,-0.238689 0.06793,-0.09574 0.1376,-0.190212 0.204865,-0.286433 0.07094,-0.0978 0.137176,-0.198829 0.203885,-0.299513 0.06409,-0.09427 0.121325,-0.192818 0.178165,-0.291539 0.05719,-0.101407 0.114157,-0.202928 0.172731,-0.303546 0.05034,-0.08821 0.1061,-0.17308 0.159938,-0.259133 0.03896,-0.06482 0.0799,-0.128402 0.119377,-0.192908 0.02294,-0.04017 0.04912,-0.07832 0.0743,-0.117088 0,0 0.158163,-0.06957 0.158163,-0.06957 v 0 c -0.02479,0.03946 -0.0529,0.07683 -0.07585,0.117485 -0.04036,0.06469 -0.08182,0.128622 -0.121354,0.193829 -0.05349,0.08657 -0.110934,0.170709 -0.161298,0.259244 -0.05903,0.100351 -0.116152,0.201782 -0.172884,0.303448 -0.0566,0.09917 -0.113911,0.198038 -0.177935,0.292669 -0.06726,0.100417 -0.132646,0.202133 -0.203821,0.299886 -0.06707,0.09612 -0.136226,0.190701 -0.204335,0.28607 -0.05381,0.07851 -0.107884,0.156851 -0.158769,0.237316 -0.02357,0.03535 -0.04666,0.07111 -0.06701,0.108376 -0.04608,0.04741 -0.142943,0.152286 -0.174193,0.07964 -0.004,-0.03508 0.01498,-0.06854 0.02289,-0.101864 0.02593,-0.08401 0.05184,-0.168236 0.08573,-0.249465 0.04622,-0.112829 0.08924,-0.226928 0.132528,-0.340903 0.04333,-0.112053 0.08508,-0.224689 0.131836,-0.335393 0.02994,-0.07682 0.06121,-0.153117 0.08602,-0.231834 0.01238,-0.03963 0.02635,-0.07863 0.03863,-0.118218 0.0013,-0.0047 0.007,-0.02577 0.0084,-0.02657 0.160935,-0.08817 0.184023,-0.134557 0.156749,-0.07407 -0.0086,0.01797 -0.02045,0.03388 -0.02773,0.05243 -0.01691,0.03578 -0.03377,0.07161 -0.04911,0.108103 -0.03133,0.06606 -0.06066,0.133075 -0.09168,0.19929 -0.04274,0.10224 -0.08922,0.202959 -0.128651,0.306564 -0.04437,0.110789 -0.09126,0.22065 -0.138946,0.330039 -0.04473,0.09954 -0.09469,0.196398 -0.143663,0.293891 -0.04799,0.09265 -0.09677,0.184846 -0.144555,0.277583 -0.03761,0.0794 -0.07551,0.158556 -0.117253,0.235854 -0.02408,0.04565 -0.04885,0.09093 -0.0741,0.135946 -0.05689,0.0776 -0.03632,0.05555 -0.184367,0.132935 -0.02384,-0.01656 -0.01974,-0.03639 -0.01902,-0.06354 0.01013,-0.08731 0.02535,-0.173892 0.03713,-0.260977 0.02877,-0.182817 0.06121,-0.365046 0.08897,-0.548021 0.03601,-0.244078 0.0712,-0.48849 0.09124,-0.734499 0.01971,-0.226753 0.03695,-0.453604 0.04379,-0.681178 0.0053,-0.152553 0.01,-0.305125 0.01648,-0.457629 0.0016,-0.07602 2.64e-4,-0.152037 5.29e-4,-0.22807 -5e-5,-0.02669 7.94e-4,-0.05364 -0.0019,-0.08021 0.05055,-0.02772 0.101272,-0.05511 0.151643,-0.08315 0.0011,-5.29e-4 -0.0029,4.5e-5 -0.0039,7.94e-4 -0.0016,0.0016 -0.0026,0.0037 -0.0038,0.0056 -0.0061,0.01048 -0.0076,0.02223 -0.01185,0.03353 -0.01886,0.04693 -0.04279,0.09163 -0.06355,0.137716 -0.04474,0.09367 -0.0922,0.186036 -0.133408,0.2814 -0.06037,0.132218 -0.1172,0.266031 -0.178176,0.397981 -0.06547,0.138922 -0.13198,0.277392 -0.200882,0.414644 -0.05856,0.118325 -0.116846,0.236861 -0.183743,0.350782 -0.05346,0.0949 -0.106664,0.190212 -0.166116,0.281512 -0.04938,0.07612 -0.101695,0.150204 -0.153882,0.224411 -0.04022,0.06053 -0.08174,0.120145 -0.122785,0.180118 -0.02553,0.03581 -0.05213,0.0708 -0.08063,0.104299 -0.01323,0.0132 -0.02622,0.02671 -0.04006,0.03927 -0.05134,0.02977 -0.10264,0.05962 -0.154024,0.0893 -0.0028,0.0016 -0.009,0.0058 -0.0122,0.006 -0.003,1.8e-4 -0.0057,-0.0024 -0.0089,-0.0019 -0.01056,-0.0027 -0.01958,-0.0083 -0.02357,-0.01905 -0.007,-0.02662 0.0057,-0.0562 0.0066,-0.08295 0.01339,-0.07599 0.03242,-0.15085 0.04868,-0.226248 0.02711,-0.125265 0.05463,-0.250465 0.08355,-0.375325 0.03555,-0.155247 0.06918,-0.310922 0.108241,-0.465344 0.03822,-0.168672 0.07798,-0.337013 0.110895,-0.506836 0.03178,-0.162991 0.06409,-0.325897 0.09104,-0.489783 0.02524,-0.155308 0.05501,-0.309859 0.08066,-0.465108 0.02072,-0.13266 0.04157,-0.265388 0.05482,-0.39905 0.0078,-0.09273 0.01318,-0.185648 0.01826,-0.278554 0.0026,-0.04619 0.0073,-0.09226 0.006,-0.13858 -5.3e-5,-0.0052 1.6e-5,-0.01474 -5.29e-4,-0.02019 -2.14e-4,-0.0019 -0.0029,-0.0048 -0.0011,-0.0057 0.235376,-0.13807 0.199273,-0.106523 0.144557,-0.07913 -0.0086,0.01233 -0.02214,0.02032 -0.02933,0.03389 -0.01225,0.02082 -0.02582,0.04003 -0.04089,0.05902 -0.01976,0.03252 -0.04165,0.06386 -0.06263,0.09555 -0.03311,0.04834 -0.06515,0.09741 -0.09881,0.145383 -0.05454,0.08357 -0.09584,0.175011 -0.138219,0.265136 -0.05669,0.140669 -0.109204,0.282856 -0.151921,0.428483 -0.04927,0.156667 -0.0912,0.315544 -0.137419,0.473133 -0.04266,0.148521 -0.08706,0.296553 -0.131498,0.444561 -0.03172,0.112016 -0.06553,0.223453 -0.102161,0.333965 -0.02537,0.07794 -0.0511,0.155794 -0.07446,0.23436 -0.01722,0.05485 -0.03613,0.109108 -0.0531,0.164028 -0.01302,0.04605 -0.0254,0.09235 -0.03206,0.139816 0,0 -0.155601,0.07713 -0.155601,0.07713 z"
       inkscape:connector-curvature="0" />
    <path
       style="fill:#4d4d4d;fill-opacity:0;stroke:#000000;stroke-width:0.36500001;stroke-linecap:round;stroke-linejoin:round;stroke-miterlimit:4;stroke-dasharray:none;stroke-opacity:1"
       id="path882"
       d="m 93.739239,84.754547 c 0.0329,0.0063 0.06563,0.0132 0.09884,0.01767 0.03553,0.0076 0.07183,0.0089 0.107813,0.01281 0.04425,0.0038 0.08845,0.0081 0.132717,0.01177 0.05478,0.0078 0.110215,0.0081 0.165111,0.01423 0.06636,0.0077 0.132871,0.01402 0.199054,0.0232 0.07977,0.0092 0.159017,0.02236 0.238241,0.03535 0.09154,0.01511 0.183288,0.02896 0.274984,0.04315 0.09363,0.01357 0.187026,0.02889 0.28035,0.0444 0.09782,0.01789 0.195723,0.03531 0.293735,0.05216 0.0885,0.0127 0.176864,0.02652 0.26561,0.03736 0.07952,0.0088 0.159282,0.01466 0.239054,0.0205 0.07292,0.0075 0.146071,0.01199 0.219324,0.01445 0.06681,0.0016 0.133651,0.0019 0.200482,0.0019 0.0591,-7.94e-4 0.118259,0.0013 0.177311,-0.0016 0.04569,-0.0026 0.09135,-0.0047 0.136877,-0.0093 0.03369,-0.0021 0.06702,-0.0062 0.10047,-0.0105 0.02212,-0.003 0.04443,-0.0039 0.06673,-0.0045 0.01714,0.0016 0.0333,-0.0019 0.04999,-0.0048 0.01606,-0.0026 0.03237,-0.0031 0.04863,-0.0035 0.0031,-1.6e-5 0.0061,-3.2e-5 0.0092,-4.8e-5 0,0 -0.0992,0.07233 -0.0992,0.07233 v 0 c -0.0031,9e-5 -0.0061,1.8e-4 -0.0092,2.64e-4 -0.01596,7.94e-4 -0.0319,0.0019 -0.0476,0.0049 -0.01688,0.0029 -0.03377,0.0034 -0.0509,0.0032 -0.02191,5.29e-4 -0.04376,0.0021 -0.06548,0.0051 -0.03326,0.0043 -0.06662,0.0069 -0.100039,0.0097 -0.04543,0.0042 -0.09101,0.0058 -0.136554,0.0082 -0.05896,0.0016 -0.117962,2.65e-4 -0.176935,7.94e-4 -0.06684,-1.53e-4 -0.133702,-9.5e-5 -0.200522,-0.0021 -0.07316,-0.0027 -0.146159,-0.008 -0.219022,-0.01524 -0.0798,-0.0061 -0.159645,-0.01161 -0.239123,-0.02119 -0.0886,-0.01132 -0.176911,-0.02498 -0.265226,-0.0383 -0.09795,-0.01701 -0.195765,-0.03476 -0.293653,-0.05211 -0.09342,-0.01529 -0.186883,-0.03048 -0.280567,-0.04411 -0.09176,-0.01423 -0.183557,-0.0282 -0.275212,-0.04309 -0.07951,-0.0127 -0.159107,-0.02508 -0.239104,-0.03437 -0.06634,-0.0088 -0.132971,-0.01503 -0.199477,-0.02244 -0.05515,-0.0052 -0.110609,-0.0067 -0.165632,-0.01357 -0.04443,-0.0038 -0.08885,-0.0077 -0.133273,-0.01162 -0.03628,-0.0034 -0.07263,-0.006 -0.108463,-0.01299 -0.03346,-0.0052 -0.06656,-0.01217 -0.09995,-0.0177 0,0 0.100626,-0.07012 0.100626,-0.07012 z"
       inkscape:connector-curvature="0" />
    <path
       style="fill:#4d4d4d;fill-opacity:0;stroke:#000000;stroke-width:0.36500001;stroke-linecap:round;stroke-linejoin:round;stroke-miterlimit:4;stroke-dasharray:none;stroke-opacity:1"
       id="path884"
       d="m 104.82019,79.605279 c 0.004,-0.03758 0.007,-0.07519 0.011,-0.112802 0.005,-0.05771 0.005,-0.115676 0.006,-0.173556 -5.3e-4,-0.08846 0.004,-0.176779 0.008,-0.265071 0.005,-0.111529 0.0108,-0.223038 0.0144,-0.334634 0.004,-0.134927 0.004,-0.269909 0.004,-0.404873 2.6e-4,-0.143751 2.2e-4,-0.287499 2.6e-4,-0.43125 0.001,-0.138126 0.004,-0.276201 0.0109,-0.414181 0.004,-0.113822 0.0113,-0.227452 0.0208,-0.340937 0.007,-0.08599 0.0156,-0.171733 0.0262,-0.257302 0.006,-0.05462 0.0131,-0.109228 0.0206,-0.163719 0.004,-0.03459 0.0106,-0.06887 0.0141,-0.103553 0.003,-0.02638 0.008,-0.05233 0.0149,-0.07803 0.005,-0.02162 0.0112,-0.04299 0.0181,-0.06413 0.005,-0.0195 0.0136,-0.03755 0.0225,-0.05543 0.008,-0.01601 0.016,-0.03212 0.0261,-0.04703 0.009,-0.01299 0.0189,-0.02529 0.0277,-0.03839 0,0 0.11297,-0.04863 0.11297,-0.04863 v 0 c -0.0102,0.01198 -0.018,0.02606 -0.028,0.03824 -0.011,0.01389 -0.019,0.02938 -0.0271,0.04513 -0.008,0.01767 -0.019,0.03463 -0.0234,0.05395 -0.007,0.02101 -0.0136,0.04199 -0.0186,0.06357 -0.007,0.02511 -0.0126,0.05061 -0.0161,0.07646 -0.004,0.03503 -0.01,0.06959 -0.0148,0.104446 -0.008,0.05475 -0.0155,0.109607 -0.0226,0.164497 -0.0112,0.08571 -0.0211,0.171532 -0.0281,0.257718 -0.0104,0.113617 -0.0181,0.22742 -0.0228,0.341418 -0.007,0.137956 -0.0106,0.276037 -0.012,0.414157 1.6e-4,0.143677 2.6e-4,0.287356 1.8e-4,0.431036 -2.7e-4,0.134911 -5.3e-4,0.269832 -0.003,0.40472 -0.003,0.111397 -0.008,0.222702 -0.0126,0.334028 -0.005,0.08786 -0.009,0.175766 -0.007,0.263777 -1.1e-4,0.05788 -4e-5,0.115839 -0.004,0.173598 -0.003,0.03742 -0.007,0.07471 -0.009,0.112244 0,0 -0.11003,0.05454 -0.11003,0.05454 z"
       inkscape:connector-curvature="0" />
    <path
       style="fill:#4d4d4d;fill-opacity:0;stroke:#000000;stroke-width:0.36500001;stroke-linecap:round;stroke-linejoin:round;stroke-miterlimit:4;stroke-dasharray:none;stroke-opacity:1"
       id="path886"
       d="m 114.03153,85.749235 c 0.0397,0.0013 0.079,7.94e-4 0.11843,-0.0038 0.0359,-0.0052 0.0721,-0.0062 0.10824,-0.007 0.0506,0.0048 0.10145,0.0064 0.15203,0.0113 0.0657,0.0076 0.13183,0.008 0.19769,0.0127 0.0744,0.0064 0.1491,0.0088 0.22377,0.01021 0.0767,0.0011 0.15349,0.0013 0.23023,0.0011 0.0744,-1.17e-4 0.14886,1.3e-5 0.22329,-1.11e-4 0.0721,5.29e-4 0.14407,5.29e-4 0.21606,-0.0038 0.0616,-0.0044 0.12338,-0.0064 0.18515,-0.0076 0.0534,-0.0011 0.10648,-0.007 0.15981,-0.0096 0.0499,-0.0024 0.0998,-0.0027 0.14968,-0.003 0.0455,-7.1e-5 0.0911,-5.8e-5 0.13659,-1.6e-5 0.0415,0.0039 0.083,0.0078 0.12467,0.0099 0.0343,0.0016 0.0686,0.0016 0.10294,0.0016 0.0265,-0.0011 0.0522,-5.3e-4 0.0782,0.0043 0.0212,0.0043 0.0427,0.006 0.0643,0.0068 0.0273,-5.29e-4 0.0541,0.0011 0.0811,0.0049 0.0341,0.0031 0.0674,0.01064 0.1013,0.01471 0.038,0.0051 0.0757,0.01069 0.11399,0.01355 0.0391,0.0026 0.0777,0.0087 0.11677,0.01175 0.033,0.0021 0.0662,0.0024 0.0993,0.0026 0.024,6.6e-5 0.048,-1.88e-4 0.072,-2.51e-4 0,0 -0.14078,0.102317 -0.14078,0.102317 v 0 c -0.0238,1.8e-5 -0.0477,-1.09e-4 -0.0715,-2.65e-4 -0.0333,-5.29e-4 -0.0666,-0.0011 -0.0998,-0.0039 -0.0388,-0.0038 -0.0774,-0.0097 -0.11643,-0.01188 -0.0384,-0.0035 -0.0765,-0.0093 -0.11471,-0.01402 -0.0339,-0.0047 -0.0674,-0.01138 -0.10148,-0.01447 -0.0269,-0.003 -0.0538,-0.0024 -0.0809,-0.0035 -0.022,-0.0013 -0.0437,-0.0043 -0.0653,-0.0084 -0.0253,-0.0035 -0.0508,-0.0019 -0.0763,-0.0024 -0.0344,-2.64e-4 -0.0688,-7.93e-4 -0.10307,-0.0027 -0.0413,-0.0027 -0.0824,-0.0072 -0.12368,-0.0094 -0.0455,-1.5e-5 -0.091,-1.34e-4 -0.13651,9e-5 -0.0496,2.57e-4 -0.0992,7.94e-4 -0.14873,0.0033 -0.0533,0.0031 -0.10654,0.0088 -0.15998,0.009 -0.0614,0.0013 -0.12283,0.0036 -0.18414,0.0076 -0.0721,0.0038 -0.14418,0.003 -0.21635,0.0029 -0.0744,-7.7e-5 -0.14881,1.46e-4 -0.22321,4.8e-5 -0.0768,-1.67e-4 -0.15357,-2.7e-5 -0.23033,-0.0016 -0.075,-0.0019 -0.1499,-0.0044 -0.22465,-0.01053 -0.0662,-0.0039 -0.13252,-0.0055 -0.1985,-0.01252 -0.0506,-0.0038 -0.10125,-0.0071 -0.15191,-0.009 -0.036,0.0013 -0.0719,0.0037 -0.10761,0.0082 -0.04,0.0037 -0.08,0.0021 -0.12015,0.0028 0,0 0.14051,-0.102084 0.14051,-0.102084 z"
       inkscape:connector-curvature="0" />
    <path
       style="fill:#4d4d4d;fill-opacity:0;stroke:#000000;stroke-width:0.36500001;stroke-linecap:round;stroke-linejoin:round;stroke-miterlimit:4;stroke-dasharray:none;stroke-opacity:1"
       id="path888"
       d="m 105.03003,92.254691 c -0.0166,0.03863 -0.0326,0.07762 -0.0439,0.118165 -0.008,0.0325 -0.0144,0.06519 -0.0218,0.09774 -0.008,0.03664 -0.015,0.07362 -0.0242,0.11004 -0.0113,0.04484 -0.0228,0.08963 -0.0346,0.13436 -0.0148,0.05359 -0.0307,0.106874 -0.0451,0.160571 -0.0162,0.0589 -0.0326,0.117753 -0.0471,0.177085 -0.0173,0.06214 -0.0348,0.124254 -0.0531,0.186129 -0.0148,0.05238 -0.0306,0.104516 -0.048,0.156113 -0.0131,0.04079 -0.0241,0.08221 -0.0366,0.123198 -0.01,0.03401 -0.0179,0.06846 -0.0263,0.102854 -0.006,0.03167 -0.0125,0.06341 -0.0198,0.0949 -0.008,0.02921 -0.0127,0.05894 -0.0208,0.08805 -0.009,0.02855 -0.0183,0.05697 -0.0263,0.08588 -0.006,0.02627 -0.0148,0.05203 -0.0211,0.07835 -0.003,0.02445 -0.008,0.04841 -0.0158,0.0719 -0.009,0.02355 -0.0108,0.04857 -0.0159,0.07296 -0.006,0.025 -0.007,0.05084 -0.0102,0.07632 -0.005,0.02344 -0.008,0.047 -0.01,0.07082 -10e-4,0.02373 -8e-4,0.04737 -0.004,0.07091 -0.004,0.02286 -0.007,0.04599 -0.008,0.06921 -10e-4,0.02146 -8e-4,0.04296 -8e-4,0.06444 1.5e-4,0.01593 9e-5,0.03185 2.4e-4,0.04778 -6e-5,0.0118 1.7e-4,0.0236 1.2e-4,0.03539 1.4e-4,0.0089 1e-5,0.01789 3e-5,0.02681 -2.1e-4,0.0094 0.005,0.01781 0.007,0.02674 0.002,0.01093 0.003,0.02185 0.006,0.03253 0,0 -0.15287,0.08402 -0.15287,0.08402 v 0 c -0.004,-0.01106 -0.006,-0.02167 -0.007,-0.03339 -0.002,-0.01053 -0.009,-0.01995 -0.01,-0.03056 3e-5,-0.0089 -10e-5,-0.01789 3e-5,-0.02683 -4e-5,-0.01183 1.8e-4,-0.02365 9e-5,-0.03548 1.1e-4,-0.01601 -1e-5,-0.03199 10e-5,-0.04798 0,-0.02175 1.9e-4,-0.04353 8e-4,-0.06528 10e-4,-0.02381 0.003,-0.04763 0.007,-0.07106 0.004,-0.02304 0.005,-0.04593 0.005,-0.06938 10e-4,-0.02429 0.004,-0.04848 0.009,-0.07224 0.005,-0.02548 0.004,-0.05193 0.01,-0.07733 0.006,-0.02477 0.008,-0.05015 0.0151,-0.07456 0.008,-0.02299 0.0151,-0.04576 0.0166,-0.07023 0.005,-0.02693 0.0147,-0.0527 0.0208,-0.07945 0.009,-0.02883 0.0158,-0.05788 0.0264,-0.08606 0.009,-0.02879 0.0139,-0.05825 0.021,-0.08747 0.009,-0.0311 0.0137,-0.06317 0.0203,-0.09477 0.008,-0.0348 0.0166,-0.06938 0.0259,-0.10382 0.0122,-0.04147 0.0252,-0.08268 0.0372,-0.124219 0.018,-0.05139 0.0339,-0.103566 0.049,-0.155861 0.0189,-0.06148 0.0353,-0.123708 0.0536,-0.185375 0.0145,-0.05936 0.0299,-0.118449 0.0466,-0.177265 0.0145,-0.05356 0.0293,-0.106982 0.0448,-0.160253 0.0115,-0.04467 0.0228,-0.08935 0.034,-0.134104 0.01,-0.03599 0.0158,-0.07287 0.0238,-0.109268 0.007,-0.03279 0.0145,-0.06565 0.0219,-0.09844 0.0105,-0.04138 0.027,-0.08045 0.042,-0.120338 0,0 0.15777,-0.07224 0.15777,-0.07224 z"
       inkscape:connector-curvature="0" />
    <path
       style="fill:#4d4d4d;fill-opacity:0;stroke:#000000;stroke-width:0.36500001;stroke-linecap:round;stroke-linejoin:round;stroke-miterlimit:4;stroke-dasharray:none;stroke-opacity:1"
       id="path890"
       d="m 104.6431,86.385015 c 0.0409,0.0081 0.0813,0.01805 0.12244,0.02495 0.0327,0.0049 0.0658,0.0056 0.0989,0.006 0.0268,1.11e-4 0.0537,-2.2e-5 0.0805,-1.67e-4 0.0202,-0.0038 0.0399,-0.0074 0.0587,-0.01556 0.0516,-0.02998 0.11257,-0.06475 -0.13086,0.07514 -0.002,0.0013 0.004,-0.0026 0.006,-0.004 0.004,-0.0026 0.008,-0.0065 0.0115,-0.0094 0.0103,-0.0064 0.0153,-0.01725 0.023,-0.02574 0.008,-0.009 0.0102,-0.01963 0.0114,-0.03148 0.002,-0.01982 -0.004,-0.03928 -0.009,-0.05808 -0.009,-0.02442 -0.023,-0.04601 -0.0364,-0.06795 -0.0154,-0.02848 -0.0329,-0.05565 -0.0497,-0.0833 -0.0207,-0.03665 -0.0457,-0.0706 -0.0735,-0.102211 -0.0261,-0.03404 -0.0577,-0.06307 -0.0886,-0.0926 -0.0221,-0.02178 -0.0484,-0.03699 -0.0744,-0.05318 -0.0126,-0.0073 -0.0262,-0.01352 -0.0409,-0.01437 -0.006,0.0011 -0.0141,-0.0021 -0.0199,5.1e-5 -0.003,0.0013 -0.006,0.0042 -0.009,0.0057 0.26957,-0.148645 0.15578,-0.09794 0.10549,-0.05254 -0.0232,0.0232 -0.0413,0.05052 -0.0593,0.07769 -0.0302,0.04102 -0.0558,0.08473 -0.0794,0.129749 -0.0327,0.05962 -0.0555,0.1241 -0.0798,0.18746 -0.0225,0.06518 -0.0422,0.131331 -0.0589,0.198202 -0.0114,0.0468 -0.0162,0.09475 -0.0182,0.142767 -10e-4,0.02777 0.006,0.05136 0.0206,0.07455 0.0148,0.01955 0.0363,0.02953 0.0576,0.04009 0.0363,0.01469 0.0759,0.01582 0.11449,0.01757 0.0651,0.0026 0.13013,-0.0078 0.19395,-0.01974 0.0739,-0.01143 0.14595,-0.0319 0.21772,-0.05246 0.0636,-0.01828 0.12728,-0.03599 0.1895,-0.05869 0.0445,-0.01654 0.0869,-0.03722 0.12937,-0.05827 0.005,-0.003 0.0106,-0.006 0.0159,-0.0089 0.005,-0.0026 0.01,-0.0048 0.0149,-0.0074 0.005,-0.0024 0.009,-0.0051 0.0136,-0.0077 -0.0451,0.02588 -0.0901,0.05195 -0.13532,0.07767 -0.007,0.0042 0.0143,-0.0092 0.0213,-0.01392 0.0157,-0.01162 0.0313,-0.02387 0.0437,-0.03899 0.01,-0.01164 0.0165,-0.02405 0.0211,-0.03842 0.006,-0.01299 0.0101,-0.02643 0.0121,-0.04065 0.003,-0.01638 -1.2e-4,-0.03053 -0.007,-0.04533 -0.008,-0.02119 -0.0211,-0.03942 -0.0335,-0.05805 -0.0167,-0.02307 -0.0365,-0.04382 -0.0577,-0.06285 -0.0228,-0.01876 -0.0427,-0.04078 -0.0661,-0.05873 -0.003,-0.0024 -0.007,-0.0047 -0.01,-0.0073 -0.009,-0.0076 -0.008,-0.0085 -0.0172,-0.01505 -0.007,-0.0053 -0.0154,-0.0087 -0.0227,-0.01434 -0.004,-0.0066 -0.0125,-0.0069 -0.0177,-0.01132 -0.0189,-0.01606 0.006,0.0024 -0.007,-0.0071 0,0 0.14818,-0.0927 0.14818,-0.0927 v 0 c 0.007,0.0066 0.0168,0.01064 0.0238,0.01775 0.0173,0.01164 0.0338,0.02389 0.0494,0.03775 0.0227,0.01923 0.0436,0.04055 0.0664,0.05976 0.022,0.02021 0.0426,0.04212 0.0601,0.06637 0.0129,0.01929 0.0272,0.03816 0.0353,0.06006 0.008,0.01722 0.0142,0.03416 0.0114,0.05355 -10e-4,0.01529 -0.003,0.03118 -0.0101,0.04491 -0.007,0.01416 -0.007,0.03076 -0.0194,0.04236 -0.0111,0.01757 -0.0257,0.03172 -0.0422,0.04436 -0.0691,0.05388 -0.14956,0.09132 -0.22687,0.132075 -0.0421,0.02101 -0.0853,0.0395 -0.12952,0.05576 -0.0624,0.02162 -0.12604,0.03899 -0.18948,0.05726 -0.0721,0.02019 -0.14457,0.03976 -0.21871,0.05111 -0.0652,0.01125 -0.13122,0.02122 -0.19754,0.01757 -0.0407,-0.0021 -0.0822,-0.0048 -0.11972,-0.02259 -0.0241,-0.01201 -0.0472,-0.02567 -0.063,-0.04814 -0.016,-0.02606 -0.0254,-0.05301 -0.0247,-0.08412 0.002,-0.04924 0.007,-0.09845 0.0182,-0.146552 0.0167,-0.06765 0.0372,-0.134229 0.0589,-0.200444 0.0241,-0.06354 0.0462,-0.128441 0.0778,-0.188669 0.0232,-0.04523 0.0469,-0.09019 0.0777,-0.130849 0.0176,-0.02774 0.0351,-0.05572 0.057,-0.08027 0.0481,-0.05745 0.14027,-0.08384 0.19271,-0.121431 0.0111,-0.0028 0.0232,-5.29e-4 0.0345,0.0013 0.0156,0.0045 0.0302,0.01138 0.0439,0.02019 0.027,0.0164 0.0522,0.03507 0.0751,0.05693 0.0315,0.02972 0.0626,0.05986 0.0893,0.09406 0.0281,0.03256 0.0538,0.06718 0.0756,0.104368 0.0169,0.02763 0.0344,0.05475 0.0502,0.08308 0.0141,0.02323 0.0293,0.04605 0.0388,0.07167 0.006,0.02053 0.013,0.04177 0.0129,0.06341 -5.3e-4,0.01344 -1e-5,0.02814 -0.007,0.04004 -0.0129,0.02268 0.006,-0.0088 -0.007,0.0075 -0.005,0.0069 -0.006,0.01725 -0.0152,0.02167 -0.0511,0.05143 -0.11732,0.08729 -0.18552,0.111617 -0.02,0.0061 -0.0411,0.0096 -0.062,0.01048 -0.0268,6e-6 -0.0536,1.59e-4 -0.0804,-2.64e-4 -0.0335,-7.94e-4 -0.067,-0.0024 -0.10008,-0.0085 -0.0412,-0.008 -0.0821,-0.01781 -0.1235,-0.02506 0,0 0.14267,-0.09897 0.14267,-0.09897 z"
       inkscape:connector-curvature="0" />
    <path
       style="fill:#4d4d4d;fill-opacity:0;stroke:#000000;stroke-width:0.36500001;stroke-linecap:round;stroke-linejoin:round;stroke-miterlimit:4;stroke-dasharray:none;stroke-opacity:1"
       id="path898"
       d="m 104.89381,86.968673 c 0.0435,0.0686 0.0843,0.138615 0.12014,0.211524 0.041,0.08834 0.0846,0.175461 0.12422,0.264403 0.0622,0.130146 0.11935,0.262284 0.17431,0.395613 0.0735,0.167944 0.13926,0.339109 0.2105,0.507987 0.0779,0.1861 0.16811,0.366524 0.25027,0.550704 0.0892,0.201244 0.18629,0.398848 0.2804,0.597818 0.0975,0.201631 0.18937,0.40596 0.29142,0.605361 0.0945,0.18492 0.17996,0.374243 0.26426,0.563962 0.0816,0.16047 0.15166,0.326292 0.22707,0.489654 0.0568,0.125558 0.10957,0.252878 0.1664,0.378439 0.0452,0.101832 0.0943,0.201961 0.14432,0.301558 0.0426,0.07793 0.0738,0.161134 0.11012,0.241954 0.0286,0.06801 0.0558,0.136538 0.0819,0.205581 0.0212,0.05673 0.0377,0.114917 0.0613,0.17077 0.0151,0.04299 0.0311,0.0855 0.0483,0.127715 0.0189,0.04478 0.0317,0.09137 0.0458,0.137702 0.0159,0.05314 0.0381,0.104082 0.0536,0.157334 0.0224,0.06634 0.0441,0.132991 0.0703,0.19797 0.0248,0.06079 0.0435,0.123864 0.068,0.184713 0.0269,0.0566 0.0441,0.116999 0.0695,0.174154 0.023,0.0509 0.0479,0.100992 0.074,0.150387 0.0189,0.04199 0.038,0.08366 0.0613,0.123407 0.0221,0.02633 0.0349,0.05809 0.0534,0.08659 0.0175,0.01855 0.0278,0.04227 0.0466,0.05954 0.0138,0.01167 0.0266,0.02307 0.0436,0.02963 0.0133,0.0044 0.0278,0.0049 0.0418,0.005 0.0152,9.5e-5 0.0304,-1.59e-4 0.0456,-1.96e-4 0.0122,-5.29e-4 0.0228,-0.0013 0.0339,0.004 0,0 -0.0773,0.05217 -0.0773,0.05217 v 0 c -0.0106,-0.0024 -0.0213,-0.0013 -0.0321,-0.0013 -0.0153,1.24e-4 -0.0305,2.38e-4 -0.0458,-4e-5 -0.0148,-7.94e-4 -0.0299,-0.0019 -0.0437,-0.0079 -0.0173,-0.0079 -0.0311,-0.02019 -0.0454,-0.03249 -0.0187,-0.01831 -0.0299,-0.04217 -0.0476,-0.0615 -0.0184,-0.02876 -0.0314,-0.06049 -0.0534,-0.08704 -0.0233,-0.03997 -0.0426,-0.08166 -0.0613,-0.123883 -0.0262,-0.04957 -0.0511,-0.0999 -0.0742,-0.150998 -0.0255,-0.05722 -0.0427,-0.117753 -0.0696,-0.174466 -0.0247,-0.0608 -0.0432,-0.123944 -0.0679,-0.184756 -0.0263,-0.06525 -0.048,-0.132215 -0.0708,-0.198718 -0.0154,-0.05324 -0.0378,-0.104023 -0.0538,-0.157086 -0.0143,-0.046 -0.0265,-0.09252 -0.0455,-0.136985 -0.0172,-0.04219 -0.0335,-0.08453 -0.0482,-0.127656 -0.0234,-0.05607 -0.0404,-0.114247 -0.0612,-0.171252 -0.0261,-0.06883 -0.053,-0.137295 -0.0815,-0.20516 -0.0362,-0.08074 -0.0671,-0.163944 -0.10959,-0.2418 -0.05,-0.09975 -0.0988,-0.200174 -0.14422,-0.302051 -0.0566,-0.125669 -0.10904,-0.253122 -0.1657,-0.378754 -0.0751,-0.163587 -0.14501,-0.329525 -0.22658,-0.490077 -0.0841,-0.189659 -0.16936,-0.378902 -0.26363,-0.563745 -0.1021,-0.19948 -0.19383,-0.403971 -0.29152,-0.605621 -0.0943,-0.198956 -0.19114,-0.396737 -0.28072,-0.597868 -0.0823,-0.184158 -0.17256,-0.36463 -0.2506,-0.55073 -0.0713,-0.168852 -0.13726,-0.339932 -0.21106,-0.507752 -0.0552,-0.133117 -0.11222,-0.265192 -0.17494,-0.39497 -0.0396,-0.08878 -0.0836,-0.175601 -0.12458,-0.263808 -0.0357,-0.07262 -0.0759,-0.142645 -0.1201,-0.210457 0,0 0.08,-0.04657 0.08,-0.04657 z"
       inkscape:connector-curvature="0" />
    <path
       style="fill:#4d4d4d;fill-opacity:0;stroke:#000000;stroke-width:0.2;stroke-linecap:round;stroke-linejoin:round;stroke-miterlimit:4;stroke-dasharray:none;stroke-opacity:1"
       id="path906"
       d="m 105.04109,85.910509 c 0.016,-0.03091 0.0296,-0.06301 0.0465,-0.09344 0.02,-0.0338 0.0401,-0.06745 0.0611,-0.10061 0.0269,-0.04341 0.0598,-0.08249 0.0904,-0.123233 0.0385,-0.05343 0.0858,-0.0992 0.1337,-0.144087 0.0543,-0.05113 0.1109,-0.0996 0.16652,-0.149222 0.0613,-0.05335 0.12587,-0.10278 0.19095,-0.151384 0.0708,-0.05208 0.1421,-0.103619 0.21337,-0.155125 0.0709,-0.0514 0.141,-0.103762 0.21343,-0.152969 0.071,-0.04655 0.14194,-0.09331 0.21229,-0.140925 0.0683,-0.04686 0.13583,-0.0948 0.20333,-0.142796 0.075,-0.05233 0.14733,-0.108254 0.21979,-0.163991 0.0753,-0.0603 0.1496,-0.12179 0.22471,-0.182311 0.0754,-0.05883 0.15102,-0.117306 0.2261,-0.176509 0.0735,-0.05574 0.14559,-0.113369 0.21643,-0.172495 0.0656,-0.05344 0.13274,-0.104997 0.19879,-0.157927 0.0666,-0.04993 0.13244,-0.100732 0.19884,-0.150855 0.0661,-0.04747 0.13069,-0.09682 0.1953,-0.146217 0.0636,-0.0473 0.12378,-0.09882 0.18633,-0.147444 0.0663,-0.05111 0.12878,-0.106971 0.1918,-0.162034 0.0633,-0.05916 0.12914,-0.115424 0.19586,-0.170645 0.0673,-0.05457 0.13714,-0.10581 0.20701,-0.157007 0.0665,-0.04634 0.13441,-0.09066 0.20192,-0.135562 0.0648,-0.04272 0.12842,-0.08709 0.19331,-0.129624 0.0586,-0.03913 0.11687,-0.07883 0.1747,-0.119137 0.0517,-0.03683 0.10176,-0.07579 0.15222,-0.11426 0.0501,-0.03966 0.0999,-0.0798 0.14881,-0.120936 0.0519,-0.04374 0.10433,-0.0869 0.15662,-0.130188 0.0588,-0.04794 0.11631,-0.09745 0.17376,-0.147024 0.0614,-0.05088 0.12038,-0.10451 0.18138,-0.155826 0.0295,-0.02408 0.0585,-0.04888 0.0872,-0.07386 0,0 0.10272,-0.04173 0.10272,-0.04173 v 0 c -0.0287,0.02516 -0.0576,0.05015 -0.0873,0.07413 -0.0614,0.05085 -0.11991,0.105 -0.18144,0.155662 -0.0573,0.04942 -0.1144,0.09918 -0.1731,0.147 -0.0522,0.04323 -0.10453,0.08635 -0.15642,0.129976 -0.0487,0.04145 -0.0987,0.08127 -0.14845,0.121423 -0.0507,0.03839 -0.10066,0.0776 -0.15223,0.114766 -0.0581,0.04043 -0.1165,0.08031 -0.17526,0.119726 -0.0652,0.04213 -0.12859,0.08693 -0.19343,0.129575 -0.0677,0.04475 -0.13537,0.08953 -0.20245,0.135212 -0.0699,0.05116 -0.13993,0.102153 -0.20742,0.156485 -0.0668,0.05497 -0.1329,0.110879 -0.19582,0.170294 -0.063,0.05509 -0.12531,0.11112 -0.19139,0.162566 -0.0627,0.04845 -0.12275,0.100083 -0.18624,0.147489 -0.0646,0.04944 -0.12912,0.0991 -0.19538,0.146359 -0.0666,0.0497 -0.13192,0.101256 -0.19891,0.150522 -0.0663,0.05278 -0.13305,0.104926 -0.19923,0.15784 -0.0709,0.05932 -0.1429,0.117282 -0.21671,0.172942 -0.0751,0.05929 -0.15068,0.117864 -0.22629,0.176464 -0.0752,0.06051 -0.14963,0.121862 -0.22466,0.182536 -0.0721,0.0558 -0.14421,0.11176 -0.21891,0.1641 -0.0674,0.04805 -0.13492,0.096 -0.20309,0.142978 -0.0704,0.04772 -0.1412,0.09466 -0.21247,0.140994 -0.0726,0.04901 -0.14296,0.100994 -0.21364,0.152709 -0.0714,0.05129 -0.1424,0.103132 -0.21341,0.154956 -0.065,0.04824 -0.12921,0.09763 -0.19075,0.150225 -0.0553,0.04974 -0.11206,0.09789 -0.16625,0.14886 -0.0476,0.04436 -0.0952,0.0892 -0.13376,0.141909 -0.0298,0.04079 -0.0627,0.07932 -0.0899,0.122047 -0.0206,0.03319 -0.0411,0.06629 -0.0608,0.100005 -0.0176,0.02949 -0.0306,0.06129 -0.046,0.09195 0,0 -0.10412,0.04768 -0.10412,0.04768 z"
       inkscape:connector-curvature="0" />
  </g>
</svg>
