<?xml version="1.0" encoding="UTF-8" standalone="no"?>
<!-- Created with Inkscape (http://www.inkscape.org/) -->

<svg
   xmlns:dc="http://purl.org/dc/elements/1.1/"
   xmlns:cc="http://creativecommons.org/ns#"
   xmlns:rdf="http://www.w3.org/1999/02/22-rdf-syntax-ns#"
   xmlns:svg="http://www.w3.org/2000/svg"
   xmlns="http://www.w3.org/2000/svg"
   xmlns:sodipodi="http://sodipodi.sourceforge.net/DTD/sodipodi-0.dtd"
   xmlns:inkscape="http://www.inkscape.org/namespaces/inkscape"
   width="100"
   height="100"
   viewBox="0 0 26.458333 26.458334"
   version="1.1"
   id="svg8"
   sodipodi:docname="Router.svg"
   inkscape:version="0.92.5 (2060ec1f9f, 2020-04-08)">
  <defs
     id="defs2" />
  <sodipodi:namedview
     id="base"
     pagecolor="#ffffff"
     bordercolor="#666666"
     borderopacity="1.0"
     inkscape:pageopacity="0.0"
     inkscape:pageshadow="2"
     inkscape:zoom="5.6568543"
     inkscape:cx="-9.6751949"
     inkscape:cy="56.418025"
     inkscape:document-units="mm"
     inkscape:current-layer="layer3"
     showgrid="false"
     inkscape:pagecheckerboard="true"
     units="px"
     inkscape:window-width="1920"
     inkscape:window-height="1016"
     inkscape:window-x="0"
     inkscape:window-y="27"
     inkscape:window-maximized="1" />
  <metadata
     id="metadata5">
    <rdf:RDF>
      <cc:Work
         rdf:about="">
        <dc:format>image/svg+xml</dc:format>
        <dc:type
           rdf:resource="http://purl.org/dc/dcmitype/StillImage" />
        <dc:title></dc:title>
      </cc:Work>
    </rdf:RDF>
  </metadata>
  <g
     inkscape:groupmode="layer"
     id="layer3"
     inkscape:label="Reference_trace"
     sodipodi:insensitive="true"
     style="display:inline">
    <path
       transform="translate(0,-270.54164)"
       style="fill:#000000;stroke-width:0.0145322"
       d="m 15.541919,293.47931 c -0.02454,-0.0245 -0.0054,-0.0593 0.04481,-0.0815 0.02997,-0.0133 0.06192,-0.0361 0.071,-0.0508 0.01554,-0.0251 0.01216,-0.0259 -0.05813,-0.0136 -0.04105,0.007 -0.106447,0.0222 -0.145329,0.0335 -0.102353,0.0296 -0.824887,0.0292 -0.913353,-4.6e-4 -0.04617,-0.0155 -0.160327,-0.0221 -0.441535,-0.0254 -0.253499,-0.003 -0.386021,-0.01 -0.399636,-0.0209 -0.01912,-0.0154 -0.08287,-0.0306 -0.347344,-0.0831 -0.05995,-0.0119 -0.148229,-0.0317 -0.196185,-0.0441 -0.04796,-0.0124 -0.115614,-0.0227 -0.150352,-0.023 -0.06249,-5.1e-4 -0.213947,-0.0373 -0.242018,-0.0587 -0.008,-0.006 -0.06279,-0.0191 -0.121767,-0.0289 -0.05898,-0.01 -0.143948,-0.0341 -0.188821,-0.0539 -0.04487,-0.0198 -0.143756,-0.0492 -0.21974,-0.0653 -0.07598,-0.0161 -0.203548,-0.0505 -0.283475,-0.0765 -0.07993,-0.026 -0.186338,-0.0518 -0.23647,-0.0574 -0.05013,-0.006 -0.118795,-0.02 -0.152588,-0.0321 -0.03379,-0.0121 -0.122239,-0.0348 -0.196547,-0.0505 -0.07431,-0.0157 -0.159323,-0.0378 -0.188919,-0.0493 -0.0296,-0.0114 -0.08651,-0.0269 -0.126473,-0.0345 -0.03996,-0.008 -0.154404,-0.0301 -0.254313,-0.0502 -0.09991,-0.02 -0.207811,-0.0405 -0.239782,-0.0455 -0.03197,-0.005 -0.120254,-0.028 -0.196184,-0.0511 -0.07593,-0.0231 -0.177293,-0.0531 -0.22525,-0.0667 -0.04796,-0.0136 -0.1689364,-0.0496 -0.2688453,-0.08 -0.3381373,-0.10298 -0.3826736,-0.1154 -0.4140074,-0.1154 -0.052229,0 -0.2825066,-0.0544 -0.4288604,-0.10137 -0.075931,-0.0244 -0.2197996,-0.0576 -0.3197085,-0.0739 -0.099909,-0.0163 -0.2078105,-0.0387 -0.2397814,-0.0498 -0.1149823,-0.04 -0.2630156,-0.078 -0.3385592,-0.0868 -0.042339,-0.005 -0.1371613,-0.0246 -0.210717,-0.0435 -0.073556,-0.019 -0.1729743,-0.0392 -0.2209306,-0.045 -0.047956,-0.006 -0.1133512,-0.0198 -0.145322,-0.0312 -0.068761,-0.0244 -0.1342309,-0.0379 -0.409404,-0.0845 -0.1132743,-0.0192 -0.2294282,-0.0447 -0.25812,-0.0566 -0.028692,-0.012 -0.1039452,-0.0289 -0.1672299,-0.0376 -0.063285,-0.009 -0.1989013,-0.0454 -0.3013699,-0.0817 -0.1024688,-0.0362 -0.2484309,-0.0788 -0.3243604,-0.0944 -0.075929,-0.0157 -0.1805613,-0.0476 -0.2325153,-0.071 -0.051954,-0.0233 -0.1449055,-0.0497 -0.2065591,-0.0585 -0.061654,-0.009 -0.1477074,-0.0286 -0.1912304,-0.0439 -0.043523,-0.0153 -0.1271388,-0.0348 -0.1858127,-0.0434 -0.058674,-0.009 -0.142647,-0.0277 -0.1866069,-0.0425 -0.04396,-0.0148 -0.1404077,-0.0378 -0.2143282,-0.0511 -0.073921,-0.0133 -0.1973831,-0.0464 -0.274361,-0.0735 -0.076978,-0.0272 -0.2126822,-0.0634 -0.3015651,-0.0805 -0.088883,-0.0171 -0.1690389,-0.0372 -0.1781245,-0.0446 -0.015622,-0.0127 -0.052033,-0.0212 -0.3322534,-0.077 -0.3113745,-0.0621 -0.5582943,-0.12332 -0.6161729,-0.15285 -0.02886,-0.0147 -0.081863,-0.0345 -0.1177851,-0.044 -0.035922,-0.009 -0.091471,-0.029 -0.1234421,-0.0435 -0.031971,-0.0144 -0.097366,-0.0376 -0.145322,-0.0515 -0.047956,-0.0139 -0.1111396,-0.0442 -0.1404073,-0.0673 -0.062229,-0.0491 -0.1279047,-0.0784 -0.2239938,-0.1 -0.038027,-0.009 -0.09595,-0.0336 -0.1287186,-0.0557 -0.032768,-0.0221 -0.092553,-0.051 -0.1328546,-0.0642 -0.040301,-0.0132 -0.1116362,-0.0471 -0.1585213,-0.0753 -0.046885,-0.0282 -0.144594,-0.0743 -0.2171311,-0.10244 -0.072537,-0.0281 -0.1711222,-0.0772 -0.2190784,-0.10909 -0.047956,-0.0319 -0.09385,-0.058 -0.1019852,-0.058 -0.00814,0 -0.039364,-0.0167 -0.069397,-0.0371 -0.030033,-0.0204 -0.082232,-0.0467 -0.1159979,-0.0584 -0.045272,-0.0157 -0.09666,-0.0584 -0.1957065,-0.16271 -0.073873,-0.0778 -0.13436319,-0.14906 -0.13442292,-0.15837 -5.813e-5,-0.009 -0.0237543,-0.0413 -0.0526545,-0.071 -0.0289002,-0.0298 -0.0676944,-0.0884 -0.0862093,-0.13023 -0.018515,-0.0419 -0.0501569,-0.0939 -0.0703154,-0.11567 -0.0201585,-0.0217 -0.0444934,-0.0634 -0.0540775,-0.0926 -0.009584,-0.0292 -0.0323144,-0.0768 -0.0505113,-0.10569 -0.0181971,-0.0289 -0.037759,-0.078 -0.0434711,-0.10899 -0.005712,-0.031 -0.0223453,-0.0718 -0.0369627,-0.0906 -0.0146174,-0.0188 -0.0303114,-0.058 -0.0348757,-0.0872 -0.0101481,-0.0648 -0.0482061,-0.19672 -0.0746464,-0.25867 -0.0132887,-0.0311 -0.0195442,-0.11153 -0.0195442,-0.25116 0,-0.18849 0.002893,-0.21108 0.0351969,-0.27483 0.0193584,-0.0382 0.0455163,-0.078 0.0581288,-0.0885 0.0126126,-0.0105 0.022932,-0.0269 0.022932,-0.0365 0,-0.0271 0.21673155,-0.22809 0.29799491,-0.27639 0.15674188,-0.0931 0.58208261,-0.22571 0.72418161,-0.22571 0.047902,0 0.1315705,-0.0416 0.4937896,-0.24558 0.2712489,-0.15273 0.4153148,-0.2254 0.7147272,-0.36048 0.079927,-0.0361 0.2201922,-0.10162 0.3117002,-0.14569 0.294693,-0.14193 0.3958564,-0.18884 0.8218117,-0.38108 0.1278834,-0.0577 0.2670263,-0.12072 0.3092066,-0.14001 0.04218,-0.0193 0.079741,-0.0351 0.083469,-0.0351 0.00706,0 0.2460878,-0.10573 0.3847974,-0.17021 0.089865,-0.0418 0.2633693,-0.12748 0.6466831,-0.31947 0.1438688,-0.0721 0.3564023,-0.17576 0.4722966,-0.23046 0.2096692,-0.0989 0.8741321,-0.43324 1.068117,-0.53738 0.3425514,-0.18389 0.668668,-0.35735 0.7629407,-0.40581 0.1628508,-0.0837 1.4794058,-0.86874 1.6712035,-0.9965 0.067938,-0.0453 0.1791094,-0.1172 0.2470474,-0.15987 0.067938,-0.0427 0.1260906,-0.0795 0.1292276,-0.0818 0.00314,-0.002 -9.155e-4,-0.0126 -0.00901,-0.0227 -0.00809,-0.0102 -0.022237,-0.0419 -0.031438,-0.0705 -0.022082,-0.0686 0.00517,-0.13519 0.084822,-0.20715 0.032446,-0.0293 0.060608,-0.0537 0.062584,-0.0542 0.00198,-4.8e-4 0.1114928,-0.004 0.2433726,-0.008 0.231574,-0.007 0.24202,-0.009 0.305176,-0.0484 0.09752,-0.061 0.358622,-0.18933 0.385278,-0.18933 0.005,0 0.07109,-0.03 0.146943,-0.0666 0.07585,-0.0366 0.147346,-0.063 0.158882,-0.0586 0.05096,0.0195 0.02051,0.0766 -0.106182,0.19897 -0.06994,0.0675 -0.148911,0.14072 -0.175501,0.16259 l -0.04835,0.0398 h 0.0384 c 0.02112,0 0.05269,0.008 0.07014,0.0171 0.01746,0.009 0.116756,0.022 0.220661,0.0281 0.192003,0.0111 0.302805,0.0263 0.472297,0.0645 0.05195,0.0117 0.116918,0.0213 0.144368,0.0212 0.02745,-7e-5 0.08631,0.009 0.13079,0.0211 0.09695,0.0254 0.335122,0.0747 0.654903,0.1357 0.08392,0.016 0.188555,0.0425 0.232515,0.0589 0.04396,0.0164 0.16484,0.0471 0.268623,0.0682 0.103782,0.0212 0.205756,0.0473 0.22661,0.0581 0.02085,0.0108 0.07327,0.0241 0.11648,0.0297 0.04321,0.006 0.112052,0.0224 0.152979,0.0375 0.04093,0.0151 0.12594,0.0373 0.188918,0.0493 0.06298,0.012 0.14879,0.0346 0.19069,0.0503 l 0.07618,0.0284 -0.0086,-0.22137 c -0.0053,-0.13666 -0.01919,-0.26662 -0.03622,-0.33962 -0.01517,-0.065 -0.02758,-0.15724 -0.02758,-0.20491 0,-0.0477 -0.0065,-0.10563 -0.01435,-0.1288 -0.0079,-0.0232 -0.02497,-0.11407 -0.03795,-0.20199 -0.01298,-0.0879 -0.02893,-0.19255 -0.03545,-0.23252 -0.0065,-0.04 -0.0124,-0.1217 -0.01307,-0.18165 -6.69e-4,-0.0599 -0.01778,-0.194 -0.03803,-0.29791 -0.02025,-0.1039 -0.04598,-0.2772 -0.05718,-0.3851 -0.0112,-0.1079 -0.03692,-0.27466 -0.05715,-0.37057 -0.02023,-0.0959 -0.05621,-0.28883 -0.07995,-0.4287 -0.02374,-0.13988 -0.05679,-0.33279 -0.07346,-0.4287 -0.01666,-0.0959 -0.03965,-0.23325 -0.0511,-0.30518 -0.01144,-0.0719 -0.03436,-0.20926 -0.05092,-0.30518 -0.01657,-0.0959 -0.03966,-0.23651 -0.05131,-0.31244 -0.04492,-0.29271 -0.07913,-0.50616 -0.100133,-0.62488 -0.04397,-0.24853 -0.05182,-0.29949 -0.07255,-0.47145 -0.01162,-0.0964 -0.02492,-0.22428 -0.02956,-0.28423 -0.0085,-0.10984 -0.01535,-0.14468 -0.09534,-0.48456 -0.02416,-0.10266 -0.05071,-0.25307 -0.059,-0.33424 -0.0083,-0.0812 -0.04175,-0.25222 -0.07435,-0.3801 -0.06384,-0.25042 -0.07267,-0.29106 -0.09946,-0.45777 -0.0096,-0.0599 -0.07513,-0.28229 -0.145541,-0.49409 -0.07042,-0.21181 -0.13544,-0.42761 -0.144501,-0.47957 -0.0091,-0.0519 -0.03796,-0.15331 -0.06422,-0.22525 -0.04212,-0.11537 -0.07357,-0.23811 -0.126617,-0.49409 -0.0083,-0.04 -0.02809,-0.11652 -0.04403,-0.17012 -0.01593,-0.0536 -0.02719,-0.11573 -0.02502,-0.13806 0.0022,-0.0223 -0.0013,-0.0713 -0.0078,-0.10887 -0.0076,-0.0439 -0.0053,-0.0957 0.0062,-0.14532 0.04008,-0.17221 0.09142,-0.22237 0.227601,-0.22237 0.08004,0 0.09485,0.005 0.13533,0.0436 0.025,0.0239 0.05851,0.0697 0.07447,0.10173 0.01596,0.032 0.04137,0.0811 0.05647,0.10903 0.01596,0.0296 0.03168,0.0984 0.03756,0.16437 0.009,0.10131 0.0069,0.11788 -0.02001,0.15424 -0.02775,0.0375 -0.02853,0.0452 -0.01,0.0972 0.01107,0.0311 0.02053,0.0826 0.02101,0.11461 9.85e-4,0.0648 0.05056,0.25182 0.107837,0.4069 0.02066,0.0559 0.04426,0.14232 0.05244,0.19195 0.0082,0.0496 0.07642,0.2754 0.151651,0.50173 0.08505,0.25587 0.140451,0.4471 0.146482,0.5056 0.0053,0.0518 0.04167,0.22488 0.08073,0.38473 0.03907,0.15986 0.0748,0.32988 0.07939,0.37784 0.01648,0.17192 0.06912,0.44553 0.130006,0.67575 0.01163,0.044 0.02768,0.14859 0.03567,0.23251 0.03138,0.32963 0.04566,0.45865 0.05302,0.47926 0.0042,0.0118 0.02018,0.10011 0.03546,0.19619 0.01528,0.0961 0.03799,0.23354 0.05047,0.30548 0.01248,0.0719 0.03582,0.21907 0.05188,0.32697 0.04029,0.27072 0.06494,0.42715 0.100734,0.63942 0.01685,0.0999 0.03959,0.2405 0.05054,0.31244 0.01095,0.0719 0.03034,0.19291 0.04309,0.26884 0.01275,0.0759 0.02975,0.1773 0.03778,0.22525 0.008,0.048 0.03479,0.19837 0.05947,0.33424 0.02468,0.13588 0.05349,0.35344 0.06402,0.48347 0.01053,0.13003 0.02578,0.25755 0.03389,0.28338 0.02144,0.0683 0.03253,0.18261 0.03764,0.38846 0.0025,0.0999 0.01537,0.27648 0.02862,0.39237 0.04639,0.40549 0.05716,0.56168 0.05813,0.84287 6.68e-4,0.19553 0.0069,0.30019 0.02018,0.33759 0.01056,0.0298 0.01536,0.0604 0.01066,0.068 -0.01317,0.0213 0.0088,0.029 0.132141,0.046 0.06276,0.009 0.169696,0.0346 0.237634,0.0576 0.06794,0.023 0.195458,0.0521 0.283378,0.0648 0.08792,0.0127 0.20563,0.0352 0.261579,0.05 0.05595,0.0148 0.137693,0.0314 0.181653,0.0368 0.04396,0.005 0.158401,0.0283 0.254314,0.0509 0.09591,0.0226 0.212675,0.0451 0.259475,0.05 0.0468,0.005 0.09626,0.015 0.109913,0.0223 0.02336,0.0125 0.204844,0.0423 0.451681,0.0741 0.05994,0.008 0.138419,0.0206 0.174387,0.0285 0.03597,0.008 0.134059,0.024 0.217983,0.0355 0.205244,0.0283 0.426325,0.0602 0.607203,0.0876 0.08219,0.0125 0.203173,0.0253 0.268846,0.0284 0.06567,0.003 0.161913,0.0127 0.213866,0.0211 0.05195,0.008 0.144284,0.0155 0.20518,0.0157 0.0609,1.6e-4 0.165529,0.01 0.232515,0.0211 0.06699,0.0114 0.183331,0.028 0.258544,0.0369 0.07521,0.009 0.141864,0.0193 0.148115,0.0232 0.01175,0.007 0.07994,-0.10415 0.187371,-0.30609 0.03401,-0.0639 0.06661,-0.1228 0.07244,-0.13079 0.0058,-0.008 0.03535,-0.0603 0.0656,-0.11626 0.03025,-0.0559 0.08884,-0.15077 0.1302,-0.21072 0.07564,-0.10963 0.249564,-0.40187 0.34864,-0.58583 0.107646,-0.19986 0.376511,-0.62835 0.486213,-0.77488 0.03656,-0.0488 0.05217,-0.0722 0.197608,-0.29596 0.07533,-0.11589 0.143511,-0.22053 0.151508,-0.23251 0.008,-0.012 0.04985,-0.075 0.09301,-0.13997 0.04316,-0.065 0.123607,-0.17944 0.178774,-0.25432 0.05517,-0.0749 0.111266,-0.15249 0.124665,-0.17247 0.0134,-0.02 0.119996,-0.16712 0.236885,-0.32698 0.116888,-0.15985 0.223539,-0.30577 0.237001,-0.32426 0.01346,-0.0185 0.04736,-0.0647 0.07534,-0.1026 0.02798,-0.0379 0.06235,-0.0849 0.0764,-0.10444 0.257137,-0.35698 0.487072,-0.65469 0.650306,-0.84199 0.05224,-0.0599 0.146495,-0.17112 0.209447,-0.24705 0.06295,-0.0759 0.165039,-0.19364 0.226861,-0.26158 0.06182,-0.0679 0.156682,-0.17911 0.2108,-0.24704 0.166327,-0.2088 0.286463,-0.35274 0.357809,-0.4287 0.03753,-0.04 0.10287,-0.11844 0.145194,-0.17439 0.04232,-0.0559 0.151648,-0.18674 0.242945,-0.29064 0.0913,-0.10391 0.18244,-0.21508 0.20254,-0.24705 0.0201,-0.032 0.115612,-0.15149 0.212251,-0.2656 0.16945,-0.20008 0.281966,-0.33544 0.31676,-0.38108 0.0091,-0.012 0.05962,-0.0678 0.11217,-0.12406 0.05255,-0.0562 0.118437,-0.1302 0.146412,-0.16437 0.06507,-0.0795 0.152835,-0.11304 0.230659,-0.0882 0.10777,0.0344 0.174289,0.1379 0.154934,0.24107 -0.0128,0.0682 -0.101373,0.19507 -0.211326,0.30268 -0.049,0.0479 -0.112703,0.11989 -0.141557,0.15985 -0.02886,0.04 -0.07254,0.0924 -0.09708,0.1165 -0.02454,0.0241 -0.08689,0.096 -0.138555,0.15985 -0.05166,0.0638 -0.09793,0.11929 -0.102816,0.12329 -0.0073,0.006 -0.162799,0.20414 -0.199535,0.25431 -0.02868,0.0392 -0.09997,0.12295 -0.154577,0.18165 -0.03346,0.036 -0.10599,0.12098 -0.161187,0.18892 -0.08621,0.10611 -0.255648,0.30422 -0.306554,0.35843 -0.0087,0.009 -0.07087,0.0839 -0.138062,0.16576 -0.06719,0.0819 -0.177754,0.21291 -0.245692,0.29123 -0.06794,0.0783 -0.221039,0.25551 -0.340225,0.39374 -0.119185,0.13823 -0.223951,0.25787 -0.232813,0.26586 -0.0534,0.0482 -0.347981,0.4341 -0.679747,0.89056 -0.0423,0.0582 -0.08367,0.11378 -0.09192,0.12352 -0.01466,0.0173 -0.435356,0.58629 -0.639998,0.86561 -0.05653,0.0772 -0.177305,0.25146 -0.268387,0.38733 -0.09108,0.13588 -0.16914,0.25032 -0.173464,0.25432 -0.0043,0.004 -0.02673,0.0363 -0.04979,0.0719 -0.02306,0.0355 -0.04758,0.0715 -0.05449,0.0799 -0.113288,0.13801 -0.378344,0.53297 -0.5564,0.82911 -0.08215,0.13662 -0.276382,0.4273 -0.404473,0.6053 -0.12747,0.17714 -0.352061,0.52952 -0.352061,0.55239 0,0.0115 0.02614,0.0232 0.06539,0.0293 0.03597,0.006 0.104632,0.0163 0.152589,0.0238 0.04796,0.007 0.149972,0.0301 0.226702,0.0503 0.07673,0.0202 0.18463,0.0411 0.239781,0.0465 0.05515,0.005 0.195095,0.0285 0.310989,0.0513 0.115895,0.0229 0.249954,0.0456 0.297911,0.0505 0.04796,0.005 0.139509,0.021 0.203451,0.0358 0.06394,0.0148 0.184922,0.0347 0.268845,0.0443 0.131129,0.015 0.320209,0.0628 0.544958,0.13776 0.03197,0.0107 0.122855,0.0275 0.201966,0.0374 0.07911,0.01 0.187012,0.0339 0.239781,0.0533 0.05277,0.0194 0.238205,0.0838 0.412079,0.14318 0.173874,0.0593 0.340534,0.12096 0.370355,0.13694 0.02982,0.016 0.05965,0.0291 0.0663,0.0291 0.01294,0 0.228596,0.10661 0.319519,0.15796 0.03028,0.0171 0.08582,0.038 0.123419,0.0464 0.0376,0.008 0.153431,0.057 0.257393,0.10784 0.103964,0.0509 0.218451,0.0969 0.254418,0.10218 0.08841,0.013 0.166031,0.0402 0.26158,0.0915 0.04396,0.0236 0.102815,0.0471 0.13079,0.0521 0.02797,0.005 0.139146,0.0423 0.247047,0.0828 0.107902,0.0405 0.219073,0.0792 0.247048,0.0859 0.08075,0.0194 0.179628,0.0585 0.204594,0.081 0.0138,0.0124 0.05432,0.0208 0.101726,0.0209 0.179954,5e-4 0.283929,0.0759 0.208559,0.1513 -0.02073,0.0207 -0.01475,0.0263 0.06539,0.0611 0.04851,0.021 0.08821,0.043 0.08821,0.0488 0,0.006 0.03433,0.0338 0.07629,0.0623 0.07653,0.0518 0.447098,0.41171 0.6181,0.60024 0.05253,0.0579 0.122695,0.15929 0.165214,0.23869 0.04065,0.0759 0.07869,0.14129 0.08454,0.14529 0.03886,0.0266 0.04893,0.089 0.04559,0.28233 -0.0032,0.18396 -0.0067,0.20821 -0.03899,0.26598 -0.0353,0.0632 -0.04982,0.0836 -0.09546,0.13423 -0.02254,0.025 -0.02153,0.027 0.01771,0.0348 0.06405,0.0128 0.100666,0.0583 0.100666,0.12493 0,0.0715 -0.02927,0.10133 -0.16712,0.17052 -0.05595,0.0281 -0.118075,0.0657 -0.138056,0.0836 -0.04165,0.0373 -0.237497,0.15684 -0.334241,0.20408 -0.03597,0.0176 -0.115993,0.0502 -0.177836,0.0724 -0.06184,0.0223 -0.159935,0.0689 -0.217984,0.10359 -0.100606,0.0602 -0.270413,0.14602 -0.476112,0.24079 -0.05195,0.0239 -0.143506,0.0748 -0.203451,0.11304 -0.13679,0.0873 -0.251035,0.14496 -0.403391,0.20372 -0.124278,0.0479 -0.139614,0.0556 -0.519404,0.26079 -0.232573,0.12564 -0.347095,0.18323 -0.464327,0.23348 -0.117474,0.0503 -0.32036,0.15098 -0.492154,0.2441 -0.09446,0.0512 -0.277563,0.14175 -0.406901,0.20122 -0.357392,0.16433 -0.460815,0.21735 -0.729255,0.37383 -0.135877,0.0792 -0.297069,0.16553 -0.358206,0.19183 -0.154226,0.0663 -0.324545,0.15415 -0.520993,0.26861 -0.168028,0.0979 -0.221928,0.1245 -0.515893,0.25457 -0.08792,0.0389 -0.333151,0.15696 -0.544958,0.26233 -0.389344,0.19371 -0.469391,0.23017 -0.764594,0.34828 -0.149948,0.06 -0.337155,0.15751 -0.498074,0.25944 -0.03507,0.0222 -0.126622,0.0697 -0.203451,0.10542 -0.07683,0.0358 -0.149714,0.0703 -0.161964,0.0766 -0.01225,0.006 -0.04413,0.0164 -0.07085,0.0223 -0.02762,0.006 -0.08427,0.0429 -0.131358,0.0854 -0.04554,0.0411 -0.0954,0.0827 -0.110809,0.0925 -0.01541,0.01 -0.06376,0.0419 -0.107451,0.0714 -0.04369,0.0295 -0.109083,0.0651 -0.145322,0.0791 -0.173683,0.0671 -0.270004,0.10894 -0.450993,0.19577 -0.107901,0.0518 -0.214598,0.094 -0.237103,0.0939 -0.02251,-1.4e-4 -0.0552,0.007 -0.07266,0.0169 -0.01746,0.009 -0.05463,0.0217 -0.08261,0.0274 -0.191606,0.039 -0.42461,0.13378 -0.566756,0.23056 -0.03597,0.0245 -0.06997,0.0445 -0.07557,0.0446 -0.0056,0 -0.03924,0.0197 -0.07477,0.0437 -0.05986,0.0404 -0.136849,0.0567 -0.159686,0.0339 z m -0.17905,-0.56433 c 0.02869,-0.012 0.07512,-0.0218 0.103169,-0.0218 0.02805,0 0.09437,-0.0163 0.147372,-0.0363 0.05301,-0.02 0.139804,-0.042 0.192885,-0.0491 0.09844,-0.0131 0.263396,-0.056 0.51142,-0.13308 0.07634,-0.0237 0.150811,-0.0431 0.165487,-0.0431 0.01468,0 0.09935,-0.0352 0.188173,-0.0783 0.08882,-0.043 0.177836,-0.083 0.197818,-0.0888 0.06233,-0.0181 0.344184,-0.16017 0.363305,-0.18313 0.004,-0.005 0.02198,-0.0165 0.03996,-0.0259 0.02529,-0.0133 0.0327,-0.0299 0.0327,-0.0734 0,-0.0829 -0.07567,-0.22573 -0.142147,-0.26834 -0.02972,-0.0191 -0.07693,-0.0589 -0.1049,-0.0885 -0.02798,-0.0297 -0.08732,-0.0789 -0.131873,-0.10939 -0.04455,-0.0305 -0.101103,-0.0784 -0.125664,-0.10633 -0.02456,-0.028 -0.07312,-0.0693 -0.107909,-0.0919 -0.03479,-0.0226 -0.06652,-0.0453 -0.07052,-0.0505 -0.004,-0.005 -0.05432,-0.0324 -0.111829,-0.0603 -0.05751,-0.028 -0.123772,-0.0645 -0.14725,-0.0812 -0.08748,-0.0623 -0.361749,-0.19475 -0.452999,-0.21879 -0.05195,-0.0137 -0.181386,-0.0685 -0.287629,-0.12185 -0.128334,-0.0644 -0.228326,-0.10415 -0.29791,-0.11835 -0.07591,-0.0155 -0.185563,-0.0615 -0.398312,-0.16723 -0.18616,-0.0925 -0.329718,-0.15413 -0.39237,-0.16847 -0.05434,-0.0124 -0.134765,-0.0346 -0.178725,-0.0492 -0.04396,-0.0146 -0.115895,-0.0347 -0.159855,-0.0446 -0.04396,-0.01 -0.119164,-0.0365 -0.16712,-0.0591 -0.04796,-0.0227 -0.1297,-0.0506 -0.181652,-0.0621 -0.05195,-0.0115 -0.143506,-0.0374 -0.203451,-0.0574 -0.112743,-0.0377 -0.312658,-0.0978 -0.414168,-0.12434 -0.113905,-0.0298 -0.437059,-0.12177 -0.501361,-0.14266 -0.03597,-0.0117 -0.09482,-0.0278 -0.13079,-0.0358 -0.117781,-0.0262 -0.239476,-0.0608 -0.255437,-0.0727 -0.0086,-0.006 -0.06375,-0.0185 -0.12254,-0.0268 -0.104846,-0.0149 -0.166909,-0.0321 -0.312303,-0.0865 -0.03996,-0.015 -0.118437,-0.0352 -0.174386,-0.0449 -0.05595,-0.01 -0.17039,-0.0391 -0.254314,-0.0652 -0.08392,-0.0261 -0.24741,-0.062 -0.363305,-0.0797 -0.115894,-0.0177 -0.246684,-0.0441 -0.290644,-0.0587 -0.04396,-0.0146 -0.119164,-0.0311 -0.16712,-0.0367 -0.04796,-0.006 -0.1297,-0.023 -0.181653,-0.0386 -0.09039,-0.0272 -0.428639,-0.0949 -0.7847387,-0.15698 -0.091916,-0.016 -0.2227061,-0.0388 -0.2906441,-0.0507 -0.3168558,-0.0553 -0.4182592,-0.0766 -0.4700244,-0.0987 -0.030721,-0.0132 -0.1190042,-0.0339 -0.1961847,-0.0461 -0.1890996,-0.0298 -0.3009807,-0.0584 -0.4191701,-0.10707 -0.054447,-0.0224 -0.1363903,-0.0451 -0.1820952,-0.0505 -0.045705,-0.005 -0.1274486,-0.0267 -0.1816526,-0.0475 -0.054204,-0.0208 -0.1666883,-0.0565 -0.2499651,-0.0793 -0.083277,-0.0228 -0.1860876,-0.0579 -0.2284685,-0.078 -0.042381,-0.0201 -0.1148443,-0.0427 -0.16103,-0.0503 -0.046186,-0.008 -0.1101319,-0.025 -0.1421027,-0.0386 -0.031971,-0.0137 -0.1039053,-0.0342 -0.1598543,-0.0456 -0.055949,-0.0115 -0.1404161,-0.0407 -0.1877046,-0.065 -0.1091457,-0.0562 -0.3951514,-0.12752 -0.5127652,-0.12796 -0.049564,-1.9e-4 -0.1277774,-0.0101 -0.1738066,-0.0221 -0.046029,-0.012 -0.1428056,-0.0219 -0.215059,-0.022 -0.072253,-1.4e-4 -0.1673369,-0.01 -0.2112968,-0.0216 -0.04396,-0.0118 -0.1230294,-0.0215 -0.1757099,-0.0216 -0.052681,-1.5e-4 -0.1278847,-0.01 -0.1671204,-0.0218 -0.039236,-0.0119 -0.095026,-0.0217 -0.1239784,-0.0218 -0.028952,-1.5e-4 -0.1041565,-0.0171 -0.1671204,-0.0378 -0.062964,-0.0207 -0.1711681,-0.043 -0.2404545,-0.0496 -0.069286,-0.007 -0.1477601,-0.0221 -0.1743864,-0.0344 -0.098211,-0.0455 -0.2105029,-0.0792 -0.292685,-0.0879 -0.046431,-0.005 -0.099854,-0.019 -0.1187176,-0.0314 -0.028589,-0.0187 -0.083475,-0.0219 -0.3297485,-0.019 -0.183461,0.002 -0.3064669,-0.002 -0.3245146,-0.0116 -0.015985,-0.008 -0.062968,-0.0189 -0.1044049,-0.0236 -0.041437,-0.005 -0.1035624,-0.0209 -0.1380559,-0.036 -0.034493,-0.0152 -0.085604,-0.0361 -0.1135782,-0.0465 -0.085801,-0.032 -0.1855682,-0.10644 -0.2170799,-0.162 -0.086785,-0.15303 0.031632,-0.33226 0.2195186,-0.33226 0.039671,0 0.094431,0.0199 0.179989,0.0654 0.087067,0.0463 0.1400467,0.0654 0.1814554,0.0654 0.032166,0 0.082747,0.0101 0.1124026,0.0225 0.043048,0.018 0.1096073,0.0221 0.3301409,0.0202 0.1730261,-10e-4 0.2915064,0.004 0.3171322,0.0138 0.0225,0.009 0.065007,0.0162 0.094459,0.0164 0.029452,1.9e-4 0.092787,0.017 0.140743,0.0374 0.047956,0.0204 0.1100814,0.0438 0.1380559,0.052 0.027975,0.008 0.057402,0.02 0.065395,0.0261 0.00799,0.006 0.057039,0.0144 0.1089916,0.0183 0.051953,0.004 0.1565845,0.0238 0.2325152,0.044 0.1998513,0.0533 0.2950434,0.0709 0.4504983,0.0833 0.075931,0.006 0.164214,0.0182 0.1961848,0.027 0.031971,0.009 0.1223187,0.0161 0.2007732,0.0163 0.078454,1.9e-4 0.156119,0.008 0.1725879,0.0164 0.016469,0.009 0.099418,0.0212 0.1843302,0.0274 0.1881345,0.0139 0.5288432,0.0979 0.6415503,0.15817 0.043776,0.0234 0.1152343,0.0473 0.1587968,0.053 0.043562,0.006 0.1089572,0.0233 0.145322,0.039 0.036365,0.0157 0.1118941,0.0374 0.1678431,0.0484 0.055949,0.0109 0.1409623,0.0389 0.1889186,0.0623 0.047956,0.0233 0.1166209,0.0473 0.1525881,0.0531 0.035967,0.006 0.1242504,0.0322 0.1961848,0.0585 0.1688885,0.0617 0.2174579,0.0755 0.3017545,0.0856 0.038082,0.005 0.1145695,0.0276 0.1699728,0.0512 0.05892,0.0251 0.1870171,0.0588 0.308598,0.0812 0.1143256,0.0211 0.2438318,0.0503 0.2877917,0.0649 0.07797,0.0259 0.3846405,0.087 0.5885542,0.11731 0.055949,0.008 0.1801994,0.0308 0.2761119,0.0499 0.095912,0.0191 0.2038146,0.0391 0.2397816,0.0444 0.140541,0.0208 0.352017,0.0657 0.38019,0.0808 0.0163,0.009 0.08947,0.0249 0.162598,0.0359 0.07313,0.011 0.172196,0.0328 0.220153,0.0484 0.04796,0.0156 0.155858,0.0388 0.239781,0.0515 0.261554,0.0397 0.367087,0.0622 0.472297,0.10059 0.05595,0.0204 0.150771,0.0446 0.210717,0.0537 0.05995,0.009 0.155804,0.0351 0.21302,0.0578 0.05722,0.0227 0.165117,0.0522 0.239781,0.0656 0.07466,0.0134 0.162264,0.0358 0.194666,0.0498 0.0324,0.014 0.08999,0.0301 0.12797,0.0358 0.03798,0.006 0.106292,0.0235 0.151803,0.0396 0.04551,0.0161 0.121985,0.0376 0.169941,0.0477 0.04796,0.0102 0.136239,0.0353 0.196185,0.0559 0.05995,0.0205 0.166229,0.0506 0.236189,0.0668 0.06996,0.0162 0.148432,0.0392 0.174386,0.0512 0.02595,0.0119 0.08361,0.0281 0.128121,0.036 0.04451,0.008 0.116772,0.0302 0.160577,0.0496 0.04381,0.0194 0.112019,0.0401 0.151584,0.0459 0.06766,0.0101 0.156142,0.0422 0.239058,0.0869 0.01998,0.0107 0.06576,0.024 0.101726,0.0294 0.06447,0.01 0.110591,0.0237 0.196184,0.0598 0.02398,0.0101 0.08532,0.0253 0.136311,0.0337 0.06913,0.0115 0.171618,0.0543 0.402952,0.16834 0.170631,0.0841 0.320819,0.15299 0.333749,0.15299 0.05776,0 0.202967,0.055 0.384024,0.14542 0.107902,0.0539 0.223402,0.10256 0.256666,0.10814 0.06606,0.0111 0.450653,0.19337 0.520881,0.2469 0.02402,0.0183 0.09236,0.0578 0.151877,0.0878 0.136808,0.0689 0.298086,0.1787 0.363942,0.24779 0.02798,0.0293 0.08683,0.0782 0.13079,0.10862 0.04396,0.0304 0.105777,0.082 0.137371,0.11479 0.0316,0.0327 0.06475,0.0596 0.07368,0.0596 0.04355,0 0.137474,0.10827 0.201297,0.23203 0.03738,0.0725 0.08086,0.15294 0.0966,0.17877 0.02272,0.0373 0.02864,0.0732 0.02869,0.1743 v 0.12734 l 0.105358,-0.0528 c 0.123515,-0.0619 0.305323,-0.16696 0.316843,-0.18307 0.01603,-0.0224 0.402833,-0.21088 0.558722,-0.27223 0.14112,-0.0555 0.347378,-0.1548 0.799272,-0.38463 0.152085,-0.0774 0.529018,-0.25538 0.603086,-0.28483 0.02798,-0.0111 0.160484,-0.0846 0.294463,-0.16326 0.13398,-0.0787 0.349783,-0.19493 0.479563,-0.25838 0.12978,-0.0634 0.32627,-0.17032 0.436645,-0.23751 0.110376,-0.0672 0.247706,-0.14513 0.305176,-0.17322 0.616492,-0.30126 0.748949,-0.3672 0.780241,-0.38847 0.05305,-0.0361 0.262561,-0.1424 0.552224,-0.2803 0.139873,-0.0666 0.322978,-0.16065 0.406902,-0.20903 0.168659,-0.0972 0.430923,-0.23333 0.509109,-0.26419 0.129157,-0.051 0.210559,-0.0929 0.350097,-0.18014 0.16919,-0.10583 0.247006,-0.14661 0.405096,-0.21228 0.05994,-0.0249 0.163373,-0.0809 0.229841,-0.12442 0.0728,-0.0477 0.199309,-0.10982 0.318172,-0.15631 0.132431,-0.0518 0.199581,-0.0855 0.204188,-0.1026 0.0038,-0.014 0.01332,-0.0254 0.02122,-0.0254 0.0079,0 0.09513,-0.0834 0.193868,-0.18528 0.228208,-0.23554 0.216008,-0.22105 0.267638,-0.31781 0.03885,-0.0728 0.04391,-0.0964 0.04391,-0.20446 0,-0.11581 -0.0028,-0.12649 -0.05311,-0.20504 -0.02921,-0.0456 -0.06482,-0.10893 -0.07913,-0.14078 -0.04764,-0.10605 -0.517785,-0.58303 -0.696092,-0.70621 -0.02798,-0.0193 -0.06914,-0.0497 -0.09149,-0.0675 -0.02234,-0.0178 -0.06572,-0.0391 -0.0964,-0.0473 -0.03068,-0.008 -0.06388,-0.0248 -0.07378,-0.0367 -0.0099,-0.0119 -0.02865,-0.0217 -0.04166,-0.0218 -0.01301,-4e-5 -0.04327,-0.0104 -0.06725,-0.0231 -0.02909,-0.0153 -0.08054,-0.0228 -0.154667,-0.0225 -0.136534,6.4e-4 -0.166258,-0.0214 -0.153849,-0.11387 0.0068,-0.0509 0.0042,-0.0584 -0.02035,-0.0584 -0.01551,0 -0.04268,-0.009 -0.06038,-0.0209 -0.03354,-0.0218 -0.201072,-0.0741 -0.424304,-0.13252 -0.0718,-0.0188 -0.163777,-0.051 -0.204402,-0.0715 -0.04062,-0.0206 -0.115942,-0.0438 -0.167371,-0.0517 -0.10823,-0.0166 -0.184103,-0.0426 -0.326025,-0.11157 -0.05595,-0.0272 -0.154041,-0.0648 -0.217983,-0.0835 -0.06394,-0.0187 -0.191461,-0.07 -0.283378,-0.1138 -0.2229,-0.10633 -0.355851,-0.15928 -0.530425,-0.21122 -0.191536,-0.057 -0.353894,-0.10839 -0.482952,-0.15291 -0.05781,-0.0199 -0.164822,-0.0435 -0.237802,-0.0524 -0.13922,-0.0169 -0.285306,-0.0521 -0.457359,-0.11024 -0.06062,-0.0205 -0.182728,-0.0433 -0.29791,-0.0557 -0.107349,-0.0116 -0.240732,-0.0316 -0.296405,-0.0445 -0.05567,-0.0129 -0.163574,-0.0299 -0.239781,-0.0377 -0.07621,-0.008 -0.171255,-0.0235 -0.211218,-0.0349 -0.03996,-0.0113 -0.144596,-0.0276 -0.232515,-0.0362 -0.08792,-0.009 -0.232234,-0.035 -0.320699,-0.0587 -0.08846,-0.0237 -0.215983,-0.0497 -0.283378,-0.0578 -0.06739,-0.008 -0.16504,-0.0213 -0.216993,-0.0292 -0.157222,-0.0241 -0.164143,-0.0225 -0.217092,0.0513 -0.03264,0.0454 -0.07229,0.078 -0.125961,0.10342 -0.07338,0.0347 -0.08056,0.0356 -0.113582,0.014 -0.06762,-0.0443 -0.06103,-0.10704 0.01925,-0.18322 l 0.03775,-0.0358 -0.123523,-0.0184 c -0.06794,-0.0101 -0.218347,-0.0247 -0.334241,-0.0324 -0.115894,-0.008 -0.233562,-0.0209 -0.261484,-0.0293 -0.02792,-0.008 -0.103622,-0.0154 -0.168223,-0.0154 -0.109444,0 -0.227649,-0.0138 -0.573015,-0.0669 -0.07593,-0.0117 -0.206721,-0.0305 -0.290644,-0.0419 -0.185497,-0.0251 -0.431948,-0.0624 -0.530426,-0.0802 -0.03996,-0.007 -0.111898,-0.0172 -0.159854,-0.0222 -0.04796,-0.005 -0.139509,-0.0211 -0.203451,-0.0358 -0.06394,-0.0147 -0.165304,-0.0346 -0.225249,-0.0442 -0.05995,-0.01 -0.148228,-0.027 -0.196185,-0.0385 -0.04796,-0.0116 -0.132969,-0.0273 -0.188918,-0.0349 -0.05595,-0.008 -0.167121,-0.0299 -0.247048,-0.0493 -0.07993,-0.0195 -0.200907,-0.0426 -0.268846,-0.0515 -0.06794,-0.009 -0.172569,-0.0326 -0.232515,-0.0528 -0.05995,-0.0202 -0.133514,-0.0417 -0.163487,-0.0479 -0.04786,-0.01 -0.0545,-0.008 -0.0545,0.0166 0,0.0385 -0.06439,0.0992 -0.104697,0.0987 -0.01835,-2.3e-4 -0.06279,-0.0152 -0.09875,-0.0332 -0.05114,-0.0256 -0.07286,-0.0485 -0.09966,-0.10495 l -0.03427,-0.0722 -0.161919,-0.055 c -0.08906,-0.0302 -0.210965,-0.0639 -0.270911,-0.0748 -0.05995,-0.0109 -0.144958,-0.0331 -0.188918,-0.0493 -0.04396,-0.0162 -0.109355,-0.0337 -0.145322,-0.039 -0.03597,-0.005 -0.111172,-0.025 -0.167121,-0.0438 -0.05595,-0.0188 -0.162539,-0.0447 -0.236867,-0.0575 -0.07433,-0.0128 -0.17896,-0.0389 -0.232515,-0.058 -0.05356,-0.019 -0.152959,-0.0455 -0.220897,-0.0589 -0.283211,-0.0557 -0.575223,-0.11639 -0.661216,-0.13746 -0.03197,-0.008 -0.08429,-0.0145 -0.116257,-0.0148 -0.03197,-3.1e-4 -0.08429,-0.01 -0.116258,-0.0215 -0.03197,-0.0115 -0.08815,-0.0212 -0.124847,-0.0216 -0.03669,-3.5e-4 -0.09882,-0.0104 -0.138056,-0.0223 -0.04145,-0.0126 -0.129219,-0.0217 -0.209489,-0.0218 -0.07598,-9e-5 -0.160997,-0.008 -0.188919,-0.0165 -0.04625,-0.0149 -0.117738,-0.0221 -0.493999,-0.0498 l -0.123524,-0.009 -0.1671204,0.10439 c -0.1844766,0.11523 -0.2045186,0.12799 -0.4141678,0.2637 -0.1649767,0.1068 -0.4239012,0.26424 -0.6902797,0.41973 -0.099909,0.0583 -0.2516902,0.14745 -0.3372919,0.19807 -0.085602,0.0506 -0.1869638,0.10938 -0.2252492,0.13059 -0.038285,0.0212 -0.1023073,0.0593 -0.1422708,0.0846 -0.1116078,0.0706 -0.3356105,0.19324 -0.639417,0.35002 -0.1518615,0.0784 -0.3611253,0.18732 -0.4650305,0.24212 -0.1872889,0.0988 -0.8730671,0.43997 -1.0826492,0.53866 -0.059945,0.0282 -0.2038142,0.0951 -0.3197085,0.14868 -0.1158943,0.0535 -0.3284278,0.15465 -0.4722966,0.22467 -0.2183012,0.10626 -0.3939498,0.18757 -0.566756,0.26237 -0.015985,0.007 -0.059768,0.026 -0.097295,0.0424 -0.037527,0.0164 -0.072506,0.0299 -0.077731,0.0299 -0.00523,0 -0.030107,0.009 -0.055293,0.0209 -0.025186,0.0115 -0.0883,0.0379 -0.1402522,0.0588 -0.051953,0.0208 -0.1075383,0.0438 -0.1235237,0.0509 -0.1153334,0.0518 -0.1978738,0.0874 -0.2028139,0.0874 -0.0032,0 -0.04715,0.0189 -0.097662,0.0419 -0.050512,0.023 -0.183393,0.0813 -0.295291,0.12946 -0.111898,0.0482 -0.2590365,0.11329 -0.3269746,0.14475 -0.1428917,0.0662 -0.2432954,0.11004 -0.4359661,0.19054 -0.1867503,0.078 -0.3500163,0.15291 -0.4722966,0.21663 -0.055949,0.0292 -0.1327881,0.0692 -0.1707534,0.0889 -0.079722,0.0415 -0.090257,0.0631 -0.021798,0.0447 0.025976,-0.007 0.083197,-0.0154 0.1271567,-0.0188 0.04396,-0.003 0.1111932,-0.0143 0.1494071,-0.0243 0.038214,-0.01 0.099099,-0.0148 0.1353,-0.0108 0.036356,0.004 0.095065,-0.001 0.13115,-0.0122 0.05047,-0.0152 0.097373,-0.0165 0.2062067,-0.006 0.077482,0.008 0.1775971,0.0139 0.2224773,0.0141 0.059181,2.7e-4 0.091752,0.008 0.1185498,0.0294 0.020456,0.0161 0.058954,0.0291 0.086247,0.0291 0.027114,0 0.056812,0.008 0.065997,0.0167 0.00918,0.009 0.040844,0.0206 0.070353,0.0254 0.06431,0.0105 0.093306,0.0462 0.065093,0.0802 -0.024067,0.029 -0.1148089,0.0294 -0.1527437,7.6e-4 -0.015515,-0.0117 -0.056817,-0.0213 -0.091782,-0.0213 -0.034965,0 -0.074587,-0.006 -0.088049,-0.0125 -0.036688,-0.0188 -0.4219959,0.0107 -0.471056,0.0361 -0.022587,0.0117 -0.084702,0.0253 -0.1380317,0.0303 -0.05333,0.005 -0.1136359,0.0178 -0.1340132,0.0284 -0.020377,0.0106 -0.059938,0.0197 -0.087912,0.0201 -0.027975,4e-4 -0.077021,0.0106 -0.1089916,0.0226 -0.031971,0.012 -0.090826,0.0277 -0.1307898,0.0348 -0.039964,0.007 -0.1020887,0.0194 -0.1380559,0.0274 -0.035967,0.008 -0.098092,0.0209 -0.138056,0.0288 -0.039964,0.008 -0.1004538,0.0215 -0.1344229,0.0301 -0.033969,0.009 -0.089555,0.0227 -0.1235237,0.0313 -0.033969,0.009 -0.09119,0.0204 -0.1271568,0.0262 -0.066599,0.0108 -0.1979083,0.0553 -0.2265037,0.0767 -0.00868,0.007 -0.042798,0.0214 -0.075812,0.033 -0.1076953,0.038 -0.25523507,0.15885 -0.3576066,0.29292 -0.0488674,0.064 -0.0521561,0.075 -0.0521561,0.17454 0,0.0785 0.0113982,0.1414 0.0435966,0.24073 0.0239781,0.074 0.0435966,0.14266 0.0435966,0.15262 0,0.01 0.0162192,0.042 0.0360428,0.0712 0.0198235,0.0292 0.0402693,0.085 0.0454351,0.12391 0.005166,0.0389 0.0183744,0.0783 0.0293523,0.0874 0.0109778,0.009 0.0199597,0.0247 0.0199597,0.0346 0,0.01 0.0326975,0.0662 0.072661,0.1252 0.039964,0.059 0.072661,0.11559 0.072661,0.12586 0,0.0103 0.026158,0.047 0.058129,0.0817 0.031971,0.0347 0.058129,0.0704 0.058129,0.0793 0,0.009 0.042585,0.0614 0.094634,0.11659 0.074193,0.0786 0.1082821,0.10375 0.1578243,0.11622 0.034755,0.009 0.071508,0.0259 0.081673,0.0382 0.010165,0.0122 0.048257,0.0354 0.084649,0.0515 0.036392,0.0161 0.099288,0.0508 0.1397693,0.0771 0.040481,0.0263 0.1030302,0.0562 0.1389974,0.0665 0.035967,0.0103 0.1340596,0.0535 0.2179831,0.096 0.083924,0.0426 0.1754764,0.082 0.2034509,0.0876 0.027975,0.006 0.078138,0.029 0.1114742,0.0518 0.033336,0.0229 0.095462,0.049 0.1380559,0.058 0.085814,0.0182 0.1354926,0.0406 0.2242357,0.10131 0.032779,0.0224 0.098174,0.0506 0.145322,0.0626 0.084362,0.0215 0.2114674,0.0608 0.3400376,0.10514 0.035967,0.0124 0.1046319,0.031 0.1525882,0.0413 0.047956,0.0103 0.1493184,0.0322 0.2252491,0.0486 0.1656987,0.0358 0.2416873,0.0511 0.4141678,0.0834 0.071934,0.0134 0.1471454,0.0328 0.1671355,0.043 0.01999,0.0102 0.075576,0.0234 0.1235237,0.0293 0.047948,0.006 0.1820008,0.0419 0.2978951,0.0801 0.1158943,0.0382 0.2707395,0.0798 0.3441003,0.0924 0.073361,0.0126 0.1616439,0.0324 0.1961848,0.0441 0.034541,0.0117 0.116866,0.0279 0.1829448,0.0361 0.066079,0.008 0.1327819,0.0217 0.148229,0.03 0.015447,0.008 0.1037794,0.028 0.1962938,0.0438 0.094197,0.0161 0.2116999,0.0473 0.2670535,0.0708 0.054365,0.0231 0.1408505,0.0468 0.19219,0.0526 0.051339,0.006 0.1293117,0.0237 0.1732717,0.0397 0.2216829,0.0811 0.2956675,0.10267 0.4359661,0.12721 0.083924,0.0147 0.1885553,0.0372 0.2325152,0.05 0.04396,0.0128 0.1682103,0.0363 0.2761119,0.0521 0.1079016,0.0158 0.232152,0.0391 0.2761119,0.0517 0.04396,0.0126 0.1158943,0.0294 0.1598542,0.0373 0.04396,0.008 0.1485918,0.0302 0.2325153,0.0496 0.083923,0.0193 0.2049041,0.042 0.2688458,0.0503 0.1074687,0.014 0.2840767,0.0558 0.3705712,0.0876 0.019982,0.007 0.095186,0.0204 0.1671203,0.0291 0.071934,0.009 0.2027243,0.0374 0.2906441,0.064 0.1658148,0.0501 0.2733292,0.0757 0.4916368,0.11699 0.1378666,0.0261 0.2166794,0.0486 0.5110856,0.14572 0.372747,0.12302 0.52541,0.16577 0.668481,0.18721 0.22146,0.0332 0.391673,0.066 0.506431,0.0976 0.05716,0.0157 0.150186,0.0376 0.206731,0.0487 0.05655,0.011 0.148099,0.0335 0.203451,0.05 0.05535,0.0165 0.146418,0.0369 0.202367,0.0453 0.05595,0.008 0.158344,0.0347 0.227546,0.0584 0.0692,0.0237 0.173833,0.0525 0.232515,0.0639 0.05868,0.0114 0.155741,0.038 0.215686,0.0591 0.05995,0.0211 0.164577,0.0505 0.232515,0.0653 0.06794,0.0149 0.143143,0.0373 0.167121,0.0498 0.02398,0.0126 0.07474,0.0229 0.1128,0.0229 0.03806,0 0.142693,0.0189 0.232516,0.042 0.08982,0.0231 0.202548,0.0457 0.250504,0.0503 0.04796,0.005 0.139429,0.025 0.203275,0.0453 0.110201,0.035 0.133022,0.0369 0.450499,0.0372 0.240387,2e-4 0.354847,0.006 0.407077,0.0205 0.108163,0.0301 0.696502,0.0309 0.767966,0.001 z m -9.0392787,-3.09475 c -0.066206,-0.0288 -0.083778,-0.0691 -0.06415,-0.14701 0.020182,-0.0802 0.126675,-0.19511 0.1807427,-0.19511 0.020223,0 0.040437,-0.006 0.04492,-0.0132 0.018823,-0.0305 0.1604709,-0.0591 0.2390632,-0.0484 0.1363369,0.0186 0.1346248,0.10517 -0.00208,0.10517 -0.080271,0 -0.1653355,0.0702 -0.1783463,0.14724 -0.00528,0.0312 -0.018807,0.066 -0.030067,0.0773 -0.01126,0.0113 -0.020472,0.0273 -0.020472,0.0357 0,0.0172 -0.075748,0.0598 -0.1046368,0.059 -0.010388,-3.2e-4 -0.039625,-0.01 -0.064972,-0.0206 z m -1.4895395,-0.19859 c -0.078341,-0.0425 -0.3172311,-0.30942 -0.3172311,-0.35449 0,-0.0643 0.074469,-0.17924 0.127756,-0.19709 0.026306,-0.009 0.057033,-0.0125 0.068283,-0.008 0.011249,0.004 0.040728,-0.002 0.065507,-0.0146 0.033279,-0.0166 0.078448,-0.0212 0.1728355,-0.0174 0.127258,0.005 0.1280112,0.005 0.1836298,0.0626 0.046771,0.0482 0.056846,0.0696 0.061988,0.13157 0.00533,0.0643 0.011469,0.0764 0.046633,0.092 0.049868,0.0221 0.078736,0.0868 0.06553,0.14693 -0.015392,0.0701 -0.095377,0.14594 -0.1544606,0.1465 -0.027031,2.4e-4 -0.061841,0.0101 -0.077356,0.0218 -0.041416,0.0313 -0.1776008,0.026 -0.2431142,-0.01 z M 3.187123,289.35902 c -0.03536,-0.02 -0.08864,-0.0754 -0.1087298,-0.11293 -0.00814,-0.0152 -0.014766,-0.0722 -0.014732,-0.12669 5.81e-5,-0.0839 0.00615,-0.10805 0.039964,-0.15807 0.064534,-0.0954 0.1489295,-0.16605 0.2634193,-0.22039 0.088367,-0.042 0.1187454,-0.0496 0.1724639,-0.0436 0.1104912,0.0125 0.1526092,0.0787 0.1733735,0.27273 0.010576,0.0988 -0.042048,0.18599 -0.1855927,0.30743 l -0.1168533,0.0989 -0.097124,-4.4e-4 c -0.053418,-2.5e-4 -0.1102032,-0.008 -0.1261886,-0.0169 z m 8.23976,-0.96576 c -0.03996,-0.0122 -0.117629,-0.0358 -0.172589,-0.0524 -0.08461,-0.0256 -0.11245,-0.043 -0.181652,-0.11368 -0.142055,-0.14517 -0.196544,-0.2128 -0.248846,-0.30887 -0.02797,-0.0514 -0.05822,-0.10238 -0.06721,-0.11332 -0.04448,-0.0541 -0.06831,-0.13173 -0.08167,-0.26601 -0.01914,-0.19222 -0.01909,-0.24139 3.21e-4,-0.37203 0.01744,-0.11738 0.02813,-0.14366 0.101355,-0.24914 0.02597,-0.0374 0.04721,-0.0737 0.04721,-0.0806 0,-0.0185 0.155798,-0.25088 0.193365,-0.28845 0.06384,-0.0638 0.267518,-0.17507 0.36768,-0.2008 0.05509,-0.0142 0.13468,-0.0359 0.176859,-0.0484 0.06028,-0.0178 0.103814,-0.0202 0.203451,-0.0108 0.06972,0.007 0.175808,0.0127 0.235753,0.0136 0.09781,0.002 0.119136,0.007 0.207876,0.0574 0.05439,0.0306 0.116512,0.0785 0.138056,0.10639 0.02154,0.0279 0.05715,0.0711 0.07912,0.0959 0.02441,0.0276 0.05932,0.10465 0.08976,0.19816 0.0274,0.0842 0.06337,0.18887 0.07995,0.23272 0.01657,0.0438 0.03013,0.1095 0.03013,0.1459 0,0.0364 0.0098,0.10384 0.0218,0.14987 0.01199,0.046 0.0218,0.12181 0.0218,0.1684 0,0.0466 -0.0098,0.10819 -0.0218,0.13688 -0.01199,0.0287 -0.0218,0.0718 -0.0218,0.0958 0,0.0374 -0.03493,0.1187 -0.07221,0.16803 -0.006,0.008 -0.01528,0.0325 -0.02053,0.0545 -0.0127,0.0532 -0.186154,0.23548 -0.269576,0.28334 -0.03651,0.0209 -0.0899,0.0588 -0.118648,0.0842 -0.12878,0.11362 -0.516761,0.17491 -0.717943,0.11341 z m 0.379301,-0.30904 c 0.02317,-0.007 0.05867,-0.0169 0.07889,-0.0213 0.02021,-0.004 0.05945,-0.0283 0.08719,-0.0532 0.02774,-0.0249 0.07006,-0.0538 0.09404,-0.0642 0.02398,-0.0104 0.06753,-0.041 0.09678,-0.0679 0.06065,-0.0558 0.157531,-0.22994 0.157531,-0.28313 0,-0.0196 0.0088,-0.0568 0.01966,-0.0826 0.01701,-0.0407 0.01606,-0.0646 -0.007,-0.17756 -0.01467,-0.0718 -0.02679,-0.15372 -0.02692,-0.1821 -1.31e-4,-0.0284 -0.0059,-0.0578 -0.01275,-0.0654 -0.0117,-0.0129 -0.02814,-0.0595 -0.0805,-0.22803 -0.04342,-0.13976 -0.206944,-0.27592 -0.292365,-0.24344 -0.07303,0.0278 -0.122501,0.0181 -0.149366,-0.0291 -0.02434,-0.0428 -0.06909,-0.0571 -0.09814,-0.0315 -0.0076,0.007 -0.06939,0.0306 -0.137329,0.0531 -0.214414,0.0711 -0.309066,0.15831 -0.45723,0.42155 -0.02249,0.04 -0.049,0.0825 -0.0589,0.0945 -0.01662,0.0201 -0.03848,0.14267 -0.03759,0.21071 0.0016,0.12302 0.02633,0.28376 0.04725,0.30729 0.01318,0.0148 0.0448,0.0662 0.07027,0.11415 0.02547,0.0479 0.0576,0.097 0.07139,0.10899 0.01379,0.012 0.05273,0.0557 0.08654,0.0972 0.05455,0.0669 0.0708,0.0774 0.144439,0.0931 0.04563,0.01 0.09278,0.0231 0.104767,0.0295 0.02996,0.0162 0.247665,0.0157 0.299374,-6.7e-4 z m 1.660683,-0.65694 c -0.02693,-0.0269 -0.02964,-0.0412 -0.02127,-0.11243 0.0053,-0.0449 0.01589,-0.0879 0.02359,-0.0956 0.02169,-0.0217 0.01652,-0.20086 -0.0078,-0.26977 -0.01199,-0.034 -0.0218,-0.0838 -0.0218,-0.11082 0,-0.027 -0.0053,-0.049 -0.01184,-0.049 -0.0065,0 -0.0235,-0.0245 -0.03774,-0.0545 -0.08232,-0.1732 -0.201749,-0.28417 -0.424131,-0.39412 -0.2369,-0.11713 -0.222897,-0.11311 -0.674329,-0.19339 -0.266688,-0.0474 -0.80166,-0.0594 -0.966392,-0.0216 -0.06394,0.0147 -0.148955,0.0323 -0.188918,0.0391 -0.156727,0.0269 -0.199717,0.0411 -0.239787,0.0795 -0.03487,0.0334 -0.03889,0.0442 -0.02481,0.0668 0.02403,0.0385 -0.0042,0.0622 -0.05944,0.0501 -0.05896,-0.0129 -0.09104,-0.0522 -0.100524,-0.12287 -0.0069,-0.0515 -6.84e-4,-0.0696 0.04846,-0.1414 0.05482,-0.08 0.122233,-0.13585 0.164233,-0.13596 0.01136,-2e-5 0.03098,-0.009 0.0436,-0.0204 0.01262,-0.0112 0.05891,-0.0301 0.10287,-0.042 0.04396,-0.0119 0.13805,-0.0384 0.209089,-0.0588 0.122223,-0.0351 0.149159,-0.0372 0.501361,-0.0393 0.228113,-10e-4 0.405953,0.004 0.459392,0.0144 0.04796,0.009 0.142779,0.0258 0.210717,0.0371 0.06794,0.0113 0.168655,0.0279 0.223815,0.0371 0.125125,0.0207 0.246908,0.0659 0.452081,0.16756 0.266407,0.13203 0.423451,0.27356 0.530655,0.47825 0.01675,0.032 0.04633,0.0876 0.06575,0.12353 0.01942,0.036 0.03566,0.0883 0.03609,0.11625 4.36e-4,0.028 0.01021,0.077 0.02173,0.10899 0.0307,0.0852 0.02904,0.37163 -0.0025,0.43306 -0.02545,0.0496 -0.07566,0.10193 -0.12095,0.12617 -0.05031,0.0269 -0.157194,0.018 -0.191199,-0.0161 z m 1.591744,-0.79708 c -0.03289,-0.0133 -0.05666,-0.0634 -0.07089,-0.1493 -0.0177,-0.10694 -0.163266,-0.37939 -0.322903,-0.6044 -0.08975,-0.1265 -0.246011,-0.26349 -0.46982,-0.4119 -0.115747,-0.0767 -0.25915,-0.17935 -0.318672,-0.22802 -0.05952,-0.0487 -0.154345,-0.11244 -0.210717,-0.14174 -0.130608,-0.0679 -0.30377,-0.16722 -0.313211,-0.17969 -0.01237,-0.0163 -0.178883,-0.12235 -0.232516,-0.14802 -0.02797,-0.0134 -0.110494,-0.0439 -0.183376,-0.0679 -0.07288,-0.024 -0.185312,-0.0701 -0.249842,-0.10255 -0.152969,-0.0769 -0.242824,-0.1111 -0.402383,-0.15313 -0.07193,-0.0189 -0.26485,-0.0714 -0.4287,-0.11659 -0.216052,-0.0596 -0.340428,-0.0858 -0.452644,-0.0955 -0.0851,-0.007 -0.184245,-0.0234 -0.220315,-0.0356 -0.04845,-0.0164 -0.07566,-0.0184 -0.10416,-0.008 -0.02122,0.008 -0.07169,0.0147 -0.112164,0.0147 -0.06369,0 -0.08116,0.007 -0.129885,0.0509 -0.03097,0.028 -0.06899,0.0509 -0.0845,0.0509 -0.02531,0 -0.07344,-0.049 -0.07344,-0.0747 0,-0.006 0.02976,-0.045 0.06613,-0.0876 0.06669,-0.0781 0.137032,-0.12661 0.185347,-0.12774 0.01443,-3.3e-4 0.0565,-0.0144 0.09349,-0.0312 0.05354,-0.0244 0.08377,-0.0289 0.148157,-0.0219 0.04449,0.005 0.172446,0.0152 0.284344,0.023 0.111898,0.008 0.229609,0.0211 0.26158,0.0294 0.03197,0.008 0.116984,0.028 0.188918,0.0437 0.587816,0.1287 0.715966,0.16504 0.890574,0.25253 0.05369,0.0269 0.143393,0.0634 0.199342,0.0811 0.247841,0.0783 0.390269,0.14907 0.561646,0.27895 0.02679,0.0203 0.123049,0.0749 0.213913,0.12123 0.131542,0.0671 0.35309,0.21798 0.394283,0.26845 0.004,0.005 0.105359,0.0738 0.225249,0.15322 0.31128,0.20609 0.482594,0.37942 0.637819,0.64533 0.152262,0.26083 0.170755,0.31586 0.179557,0.53426 0.0071,0.17503 0.0067,0.17738 -0.03026,0.21435 -0.03869,0.0387 -0.06783,0.0443 -0.119959,0.0233 z m -0.601764,-0.083 c -0.01199,-0.004 -0.06148,-0.0266 -0.109987,-0.0496 -0.0485,-0.0231 -0.131336,-0.0526 -0.184073,-0.0657 -0.07317,-0.018 -0.116639,-0.0404 -0.183475,-0.0945 -0.04818,-0.039 -0.0923,-0.0709 -0.09806,-0.0709 -0.0058,0 -0.07372,-0.0425 -0.151011,-0.0945 -0.0773,-0.052 -0.147627,-0.0945 -0.156291,-0.0945 -0.0087,0 -0.05061,-0.0315 -0.09322,-0.0701 -0.04261,-0.0385 -0.114312,-0.0909 -0.159347,-0.11636 -0.04504,-0.0255 -0.136589,-0.0904 -0.203453,-0.1443 -0.06686,-0.0539 -0.170614,-0.12339 -0.230559,-0.15444 -0.05995,-0.031 -0.12861,-0.0709 -0.152588,-0.0884 -0.02398,-0.0176 -0.122071,-0.0768 -0.217983,-0.13165 -0.09591,-0.0548 -0.203814,-0.12041 -0.239781,-0.14576 -0.165869,-0.11692 -0.388572,-0.22432 -0.626338,-0.30206 -0.132679,-0.0434 -0.270009,-0.0835 -0.305177,-0.0891 -0.03517,-0.006 -0.09939,-0.0202 -0.142726,-0.0325 -0.0664,-0.0188 -0.09153,-0.0194 -0.159854,-0.004 -0.04459,0.01 -0.108325,0.02 -0.141638,0.0223 -0.110995,0.008 -0.266406,0.10883 -0.266406,0.17361 0,0.074 -0.04181,0.10509 -0.08429,0.0626 -0.02109,-0.0211 -0.02327,-0.12257 -0.0029,-0.13515 0.008,-0.005 0.01453,-0.0305 0.01453,-0.0568 0,-0.0299 0.0161,-0.07 0.04305,-0.10725 0.0519,-0.0716 0.188112,-0.17745 0.228444,-0.17745 0.01599,0 0.06117,-0.01 0.100405,-0.0222 0.157885,-0.0491 0.200626,-0.0513 0.387599,-0.0201 0.165139,0.0275 0.228792,0.044 0.45037,0.11664 0.04599,0.0151 0.09628,0.0274 0.111767,0.0274 0.01548,0 0.03219,0.007 0.03713,0.0145 0.0049,0.008 0.01848,0.0145 0.03008,0.0145 0.0116,0 0.05209,0.0143 0.08997,0.0317 0.07865,0.0362 0.406597,0.22347 0.43944,0.25092 0.01199,0.01 0.100273,0.0626 0.196185,0.11677 0.09591,0.0542 0.194005,0.11298 0.217983,0.13061 0.02398,0.0176 0.09297,0.0563 0.153325,0.086 0.06035,0.0297 0.161713,0.0964 0.225249,0.14825 0.06354,0.0518 0.164567,0.12279 0.224513,0.15766 0.05995,0.0349 0.128408,0.0839 0.152139,0.1089 0.02373,0.025 0.0924,0.0753 0.152588,0.11176 0.06019,0.0365 0.145408,0.0881 0.189368,0.11483 0.04396,0.0267 0.109354,0.071 0.145322,0.0983 0.04107,0.0313 0.119486,0.067 0.210798,0.096 0.126711,0.0403 0.155201,0.0557 0.221616,0.1197 0.06316,0.0609 0.07621,0.0821 0.07621,0.12388 0,0.0691 -0.02256,0.10539 -0.08063,0.12965 -0.05131,0.0214 -0.07177,0.0235 -0.108288,0.0106 z"
       id="path1001"
       inkscape:connector-curvature="0" />
  </g>
</svg>
